<svg id="Capa_1" data-name="Capa 1" xmlns="http://www.w3.org/2000/svg" viewBox="0 0 274 40"><defs><style>.cls-1{fill:#2656a3;stroke:#1d1d1b;stroke-miterlimit:10;}.cls-2{fill:#fff;}</style></defs><rect class="cls-1" x="-3.31" y="-2.38" width="279.77" height="44.57"/><path class="cls-2" d="M120.87,19.44h-6.3v6.1h7v1.84h-9.11V10.44h8.75v1.83h-6.66v5.36h6.3Z"/><path class="cls-2" d="M124.24,18.51c0-1.26,0-2.29-.1-3.3H126l.12,2h.05A4.27,4.27,0,0,1,130,14.94c1.61,0,4.11,1,4.11,5.17v7.27H132v-7c0-2-.69-3.6-2.69-3.6A3,3,0,0,0,126.5,19a3.24,3.24,0,0,0-.15,1v7.32h-2.11Z"/><path class="cls-2" d="M140,11.72v3.49h3V16.9h-3v6.56c0,1.5.41,2.36,1.58,2.36a4.71,4.71,0,0,0,1.23-.15l.1,1.66a5.13,5.13,0,0,1-1.88.3,2.87,2.87,0,0,1-2.28-.93,4.68,4.68,0,0,1-.82-3.17V16.9h-1.8V15.21H138V12.3Z"/><path class="cls-2" d="M145.44,19c0-1.43,0-2.67-.1-3.8h1.85l.07,2.39h.1a3.52,3.52,0,0,1,3.22-2.66,2.2,2.2,0,0,1,.6.07V17.1a3,3,0,0,0-.72-.08c-1.49,0-2.55,1.18-2.84,2.84a7.75,7.75,0,0,0-.09,1v6.49h-2.09Z"/><path class="cls-2" d="M154.23,21.7c.05,3,1.88,4.22,4,4.22a7.35,7.35,0,0,0,3.22-.63l.36,1.58a8.88,8.88,0,0,1-3.87.76c-3.58,0-5.72-2.46-5.72-6.13s2.07-6.56,5.46-6.56c3.8,0,4.81,3.49,4.81,5.73a9.94,9.94,0,0,1-.07,1Zm6.2-1.59c0-1.4-.55-3.59-2.93-3.59-2.14,0-3.07,2.06-3.24,3.59Z"/></svg>