<svg id="Capa_1" data-name="Capa 1" xmlns="http://www.w3.org/2000/svg" viewBox="0 0 440 38.16"><defs><style>.cls-1{fill:#2656a3;}</style></defs><path class="cls-1" d="M135,22.58h-1.07V13.3h5.16v.95H135v3.41h3.85v.94H135Z"/><path class="cls-1" d="M146.47,19.09a4.83,4.83,0,0,1-.22,1.53,3.16,3.16,0,0,1-.64,1.14,2.74,2.74,0,0,1-1,.7,3.37,3.37,0,0,1-1.34.25,3.11,3.11,0,0,1-1.28-.25,2.83,2.83,0,0,1-1-.7,3.34,3.34,0,0,1-.65-1.14,4.82,4.82,0,0,1-.23-1.53,4.46,4.46,0,0,1,.39-1.95,2.72,2.72,0,0,1,1.1-1.22,3.37,3.37,0,0,1,1.72-.42,3.24,3.24,0,0,1,1.67.42,3,3,0,0,1,1.11,1.23A4.42,4.42,0,0,1,146.47,19.09Zm-5.29,0a4.47,4.47,0,0,0,.22,1.45,2,2,0,0,0,3.76,0,4.21,4.21,0,0,0,.22-1.45,4.19,4.19,0,0,0-.22-1.44,2,2,0,0,0-.68-.93,2,2,0,0,0-1.2-.33,1.81,1.81,0,0,0-1.59.71A3.39,3.39,0,0,0,141.18,19.09Z"/><path class="cls-1" d="M151.46,15.5a3.39,3.39,0,0,1,.44,0,2.25,2.25,0,0,1,.4.06l-.13,1a2.14,2.14,0,0,0-.38-.07l-.4,0a2,2,0,0,0-.79.17,2,2,0,0,0-.65.48,2.25,2.25,0,0,0-.43.76,2.76,2.76,0,0,0-.16,1v3.73H148.3v-7h.87l.12,1.29h0a3.71,3.71,0,0,1,.52-.71,2.26,2.26,0,0,1,.71-.51A2,2,0,0,1,151.46,15.5Z"/><path class="cls-1" d="M155.55,25.7a3.7,3.7,0,0,1-2.11-.51,1.74,1.74,0,0,1-.33-2.55,2.1,2.1,0,0,1,1.15-.61,1.29,1.29,0,0,1-.46-.38,1,1,0,0,1-.2-.59,1.08,1.08,0,0,1,.22-.67,2.18,2.18,0,0,1,.65-.55,1.9,1.9,0,0,1-.89-.75,2.24,2.24,0,0,1-.34-1.24,2.58,2.58,0,0,1,.31-1.28,2.09,2.09,0,0,1,.9-.81,3.44,3.44,0,0,1,1.43-.28l.37,0,.36.05a1.76,1.76,0,0,1,.3.06h2.39v.68l-1.29.16a1.9,1.9,0,0,1,.32.6,2.11,2.11,0,0,1,.13.77,2.07,2.07,0,0,1-.71,1.65,2.83,2.83,0,0,1-1.93.62,4.16,4.16,0,0,1-.6-.05,1.42,1.42,0,0,0-.47.38.75.75,0,0,0-.16.48.44.44,0,0,0,.12.32.76.76,0,0,0,.36.18,3,3,0,0,0,.56.05h1.23a2.73,2.73,0,0,1,1.74.48,1.64,1.64,0,0,1,.61,1.39,2,2,0,0,1-.94,1.77A5,5,0,0,1,155.55,25.7Zm0-.82A4.86,4.86,0,0,0,157,24.7a1.77,1.77,0,0,0,.85-.5,1.16,1.16,0,0,0,.28-.77,1,1,0,0,0-.19-.64,1,1,0,0,0-.56-.28,4.7,4.7,0,0,0-.9-.07h-1.21a2.11,2.11,0,0,0-.82.14,1.14,1.14,0,0,0-.53.43,1.23,1.23,0,0,0-.19.71.94.94,0,0,0,.48.86A2.52,2.52,0,0,0,155.58,24.88Zm.28-5.56a1.54,1.54,0,0,0,1.13-.38,1.5,1.5,0,0,0,.38-1.11,1.63,1.63,0,0,0-.38-1.17,1.55,1.55,0,0,0-1.15-.39,1.47,1.47,0,0,0-1.11.4,1.63,1.63,0,0,0-.39,1.18,1.47,1.47,0,0,0,.39,1.09A1.59,1.59,0,0,0,155.86,19.32Z"/><path class="cls-1" d="M166.67,19.09a4.82,4.82,0,0,1-.23,1.53,3,3,0,0,1-.64,1.14,2.66,2.66,0,0,1-1,.7,3.34,3.34,0,0,1-1.34.25,3.14,3.14,0,0,1-1.28-.25,2.71,2.71,0,0,1-1-.7,3.35,3.35,0,0,1-.66-1.14,4.82,4.82,0,0,1-.23-1.53,4.46,4.46,0,0,1,.39-1.95,2.8,2.8,0,0,1,1.11-1.22,3.33,3.33,0,0,1,1.71-.42,3.24,3.24,0,0,1,1.67.42,2.88,2.88,0,0,1,1.11,1.23A4.41,4.41,0,0,1,166.67,19.09Zm-5.3,0a4.2,4.2,0,0,0,.23,1.45,1.94,1.94,0,0,0,.68,1,2,2,0,0,0,1.19.33,2,2,0,0,0,1.19-.33,2,2,0,0,0,.69-1,4.21,4.21,0,0,0,.22-1.45,4.19,4.19,0,0,0-.22-1.44,1.92,1.92,0,0,0-.68-.93,2,2,0,0,0-1.2-.33,1.81,1.81,0,0,0-1.59.71A3.39,3.39,0,0,0,161.37,19.09Z"/><path class="cls-1" d="M170.74,21.85a3.27,3.27,0,0,0,.53-.05,1.87,1.87,0,0,0,.44-.11v.82a2,2,0,0,1-.51.14,3.55,3.55,0,0,1-.64.06,2.51,2.51,0,0,1-1-.2,1.46,1.46,0,0,1-.72-.65,2.56,2.56,0,0,1-.27-1.28V16.45h-1v-.51l1-.42L169,14h.63v1.61h2v.83h-2v4.09a1.39,1.39,0,0,0,.3,1A1,1,0,0,0,170.74,21.85Z"/><path class="cls-1" d="M176.66,22.58V13.3h1.08v9.28Z"/><path class="cls-1" d="M187.66,17.85a5.43,5.43,0,0,1-.57,2.62,3.63,3.63,0,0,1-1.66,1.58,5.94,5.94,0,0,1-2.62.53h-2.52V13.3h2.8a5.32,5.32,0,0,1,2.44.52,3.57,3.57,0,0,1,1.57,1.53A5.13,5.13,0,0,1,187.66,17.85Zm-1.14,0a4.61,4.61,0,0,0-.41-2.06,2.7,2.7,0,0,0-1.22-1.21,4.35,4.35,0,0,0-2-.4h-1.55v7.43h1.31a4,4,0,0,0,2.88-.94A3.79,3.79,0,0,0,186.52,17.89Z"/><path class="cls-1" d="M193.08,13.3l-3.45,9.28h-1L192,13.3Z"/><path class="cls-1" d="M196.91,13.3a4,4,0,0,1,2.63.7,2.5,2.5,0,0,1,.83,2,3.18,3.18,0,0,1-.2,1.12,2.24,2.24,0,0,1-.62.93,3,3,0,0,1-1.14.64,5.61,5.61,0,0,1-1.71.23h-1.13v3.65h-1.08V13.3Zm-.1.92h-1.24V18h1a4.84,4.84,0,0,0,1.48-.19,1.66,1.66,0,0,0,.89-.61,2,2,0,0,0,.3-1.14,1.63,1.63,0,0,0-.59-1.38A3,3,0,0,0,196.81,14.22Z"/><path class="cls-1" d="M204.75,15.51a2.66,2.66,0,0,1,1.85.56,2.33,2.33,0,0,1,.6,1.78v4.73h-.76l-.21-1h0a3.41,3.41,0,0,1-.61.64,2.22,2.22,0,0,1-.73.39,3.72,3.72,0,0,1-1,.13,2.88,2.88,0,0,1-1.13-.22,1.81,1.81,0,0,1-.77-.68,2.09,2.09,0,0,1-.28-1.14,1.81,1.81,0,0,1,.82-1.6,4.89,4.89,0,0,1,2.52-.61l1.2-.05V18a1.68,1.68,0,0,0-.39-1.27,1.54,1.54,0,0,0-1.09-.36,3.24,3.24,0,0,0-1,.16,8,8,0,0,0-.94.37l-.33-.8a6.76,6.76,0,0,1,1.08-.41A4.88,4.88,0,0,1,204.75,15.51Zm1.41,3.64-1.06.05a3.53,3.53,0,0,0-1.83.42,1.21,1.21,0,0,0-.53,1.06,1.07,1.07,0,0,0,.36.89,1.5,1.5,0,0,0,1,.28,2.23,2.23,0,0,0,1.51-.51,1.94,1.94,0,0,0,.59-1.55Z"/><path class="cls-1" d="M213.87,20.68a1.88,1.88,0,0,1-.33,1.12,2,2,0,0,1-.95.68,4.34,4.34,0,0,1-1.48.23,5.86,5.86,0,0,1-1.26-.12,3.27,3.27,0,0,1-.93-.32v-1a5.8,5.8,0,0,0,1,.38,4.53,4.53,0,0,0,1.21.17,2.33,2.33,0,0,0,1.31-.29.93.93,0,0,0,.4-.79.84.84,0,0,0-.16-.51,1.66,1.66,0,0,0-.54-.42,9.12,9.12,0,0,0-1.06-.46c-.44-.17-.82-.34-1.15-.5a2.12,2.12,0,0,1-.75-.62,1.57,1.57,0,0,1-.26-.93,1.55,1.55,0,0,1,.71-1.36,3.42,3.42,0,0,1,1.88-.47,5.35,5.35,0,0,1,2.2.45l-.35.85a6.62,6.62,0,0,0-.92-.31,3.76,3.76,0,0,0-1-.13,2.14,2.14,0,0,0-1.12.24.74.74,0,0,0-.39.66.8.8,0,0,0,.18.54,1.76,1.76,0,0,0,.58.39c.27.12.62.27,1.05.43a8.21,8.21,0,0,1,1.13.5,2.09,2.09,0,0,1,.74.62A1.6,1.6,0,0,1,213.87,20.68Z"/><path class="cls-1" d="M220.07,20.68a1.88,1.88,0,0,1-.33,1.12,2,2,0,0,1-1,.68,4.28,4.28,0,0,1-1.47.23,5.73,5.73,0,0,1-1.26-.12,3.46,3.46,0,0,1-.94-.32v-1a5.93,5.93,0,0,0,1,.38,4.4,4.4,0,0,0,1.2.17,2.33,2.33,0,0,0,1.31-.29.94.94,0,0,0,.41-.79.91.91,0,0,0-.16-.51,1.61,1.61,0,0,0-.55-.42,8.17,8.17,0,0,0-1.05-.46c-.44-.17-.83-.34-1.15-.5a2,2,0,0,1-.75-.62,1.51,1.51,0,0,1-.27-.93,1.54,1.54,0,0,1,.72-1.36,3.36,3.36,0,0,1,1.87-.47,5.48,5.48,0,0,1,1.18.12,5.4,5.4,0,0,1,1,.33l-.36.85a6.21,6.21,0,0,0-.92-.31,3.71,3.71,0,0,0-1-.13,2.17,2.17,0,0,0-1.12.24.74.74,0,0,0-.39.66.8.8,0,0,0,.18.54,1.94,1.94,0,0,0,.59.39c.26.12.61.27,1,.43a8.8,8.8,0,0,1,1.13.5,2.05,2.05,0,0,1,.73.62A1.61,1.61,0,0,1,220.07,20.68Z"/><path class="cls-1" d="M224.55,22.71a3.45,3.45,0,0,1-1.66-.39,2.65,2.65,0,0,1-1.11-1.18,4.37,4.37,0,0,1-.4-2,4.48,4.48,0,0,1,.42-2.07A2.78,2.78,0,0,1,223,15.88a3.72,3.72,0,0,1,1.69-.38,4.74,4.74,0,0,1,1,.1,3.24,3.24,0,0,1,.8.27l-.32.88a5,5,0,0,0-.74-.23,3.07,3.07,0,0,0-.77-.1,2.15,2.15,0,0,0-1.21.31,1.87,1.87,0,0,0-.71.91,4,4,0,0,0-.24,1.49,4.1,4.1,0,0,0,.23,1.44,1.9,1.9,0,0,0,.69.91,2,2,0,0,0,1.15.31,3.83,3.83,0,0,0,1-.11,5.11,5.11,0,0,0,.81-.28v.94a3.12,3.12,0,0,1-.78.27A4.4,4.4,0,0,1,224.55,22.71Z"/><path class="cls-1" d="M234,19.09a4.83,4.83,0,0,1-.22,1.53,3.16,3.16,0,0,1-.64,1.14,2.7,2.7,0,0,1-1,.7,3.34,3.34,0,0,1-1.34.25,3.18,3.18,0,0,1-1.28-.25,2.79,2.79,0,0,1-1-.7,3.18,3.18,0,0,1-.65-1.14,4.55,4.55,0,0,1-.24-1.53,4.46,4.46,0,0,1,.39-1.95,2.8,2.8,0,0,1,1.11-1.22,3.35,3.35,0,0,1,1.72-.42,3.2,3.2,0,0,1,1.66.42,2.88,2.88,0,0,1,1.11,1.23A4.28,4.28,0,0,1,234,19.09Zm-5.29,0a4.21,4.21,0,0,0,.22,1.45,2.08,2.08,0,0,0,.68,1,2,2,0,0,0,3.08-1,4.86,4.86,0,0,0,0-2.89,1.94,1.94,0,0,0-.69-.93,2,2,0,0,0-1.2-.33,1.83,1.83,0,0,0-1.59.71A3.39,3.39,0,0,0,228.7,19.09Z"/><path class="cls-1" d="M238.29,22.71a2.6,2.6,0,0,1-2.09-.9,4,4,0,0,1-.77-2.68,4.12,4.12,0,0,1,.78-2.72,2.63,2.63,0,0,1,2.1-.91,3,3,0,0,1,1,.14,2.31,2.31,0,0,1,1.21.95h.08c0-.13,0-.31-.05-.54s0-.41,0-.56V12.7h1.06v9.88h-.85l-.16-1h-.05a2.24,2.24,0,0,1-1.21,1A2.93,2.93,0,0,1,238.29,22.71Zm.16-.88A1.83,1.83,0,0,0,240,21.2a3.19,3.19,0,0,0,.47-1.89v-.19a4,4,0,0,0-.44-2,1.76,1.76,0,0,0-1.61-.71,1.6,1.6,0,0,0-1.45.75,3.72,3.72,0,0,0-.48,2,3.45,3.45,0,0,0,.48,2A1.63,1.63,0,0,0,238.45,21.83Z"/><path class="cls-1" d="M246.44,15.5a2.85,2.85,0,0,1,1.53.39,2.54,2.54,0,0,1,1,1.1,3.9,3.9,0,0,1,.34,1.66v.65h-4.81a2.74,2.74,0,0,0,.61,1.87,2.17,2.17,0,0,0,1.66.64,5.14,5.14,0,0,0,1.17-.12,6.32,6.32,0,0,0,1.06-.36v.93a5.57,5.57,0,0,1-1.05.34,6.13,6.13,0,0,1-1.22.11A3.62,3.62,0,0,1,245,22.3a2.86,2.86,0,0,1-1.16-1.2,4.26,4.26,0,0,1-.41-2,4.63,4.63,0,0,1,.38-1.94,2.9,2.9,0,0,1,1.06-1.27A3,3,0,0,1,246.44,15.5Zm0,.86a1.71,1.71,0,0,0-1.34.55,2.57,2.57,0,0,0-.6,1.55h3.68a3.09,3.09,0,0,0-.19-1.1,1.7,1.7,0,0,0-.57-.74A1.72,1.72,0,0,0,246.43,16.36Z"/><path class="cls-1" d="M251.78,20v-.33a3.2,3.2,0,0,1,.1-.87,1.87,1.87,0,0,1,.33-.68,4.11,4.11,0,0,1,.66-.67c.33-.28.6-.51.79-.71a1.77,1.77,0,0,0,.41-.58,1.65,1.65,0,0,0,.13-.7,1.24,1.24,0,0,0-.42-1,1.83,1.83,0,0,0-1.2-.36,3.78,3.78,0,0,0-1.12.16,8.78,8.78,0,0,0-.94.38l-.37-.85a5.65,5.65,0,0,1,1.13-.44,4.82,4.82,0,0,1,1.36-.17,2.76,2.76,0,0,1,1.9.6,2.13,2.13,0,0,1,.67,1.67,2.4,2.4,0,0,1-.19,1,2.79,2.79,0,0,1-.54.76c-.23.23-.51.47-.82.73a5.7,5.7,0,0,0-.65.63,1.57,1.57,0,0,0-.3.55,2.24,2.24,0,0,0-.08.67V20Zm-.28,1.92a.8.8,0,0,1,.21-.63.76.76,0,0,1,.54-.19.75.75,0,0,1,.53.19.76.76,0,0,1,.22.63.81.81,0,0,1-.22.64.82.82,0,0,1-1.07,0A.85.85,0,0,1,251.5,21.92Z"/><path class="cls-1" d="M278.89,22.58h-5.17V13.3h5.17v.95H274.8v3h3.85v.94H274.8v3.43h4.09Z"/><path class="cls-1" d="M284.08,15.5a2.61,2.61,0,0,1,1.87.6,2.59,2.59,0,0,1,.64,1.95v4.53h-1V18.12a1.89,1.89,0,0,0-.4-1.3,1.56,1.56,0,0,0-1.22-.43,1.84,1.84,0,0,0-1.62.65,3.27,3.27,0,0,0-.47,1.9v3.64h-1v-7h.85l.16,1h.05a2.11,2.11,0,0,1,.57-.62,2.36,2.36,0,0,1,.76-.38A3,3,0,0,1,284.08,15.5Z"/><path class="cls-1" d="M291.92,15.5a3.31,3.31,0,0,1,.44,0,2.12,2.12,0,0,1,.4.06l-.13,1a2,2,0,0,0-.38-.07l-.39,0a1.9,1.9,0,0,0-.79.17,1.81,1.81,0,0,0-.65.48,2.11,2.11,0,0,0-.44.76,2.76,2.76,0,0,0-.16,1v3.73h-1.06v-7h.87l.12,1.29h0a3.71,3.71,0,0,1,.52-.71,2.38,2.38,0,0,1,.71-.51A2,2,0,0,1,291.92,15.5Z"/><path class="cls-1" d="M300.07,19.09a4.83,4.83,0,0,1-.22,1.53,3.16,3.16,0,0,1-.64,1.14,2.7,2.7,0,0,1-1,.7,3.34,3.34,0,0,1-1.34.25,3.18,3.18,0,0,1-1.28-.25,2.71,2.71,0,0,1-1-.7,3.18,3.18,0,0,1-.65-1.14,4.55,4.55,0,0,1-.24-1.53,4.46,4.46,0,0,1,.39-1.95,2.8,2.8,0,0,1,1.11-1.22,3.35,3.35,0,0,1,1.72-.42,3.2,3.2,0,0,1,1.66.42,2.88,2.88,0,0,1,1.11,1.23A4.28,4.28,0,0,1,300.07,19.09Zm-5.29,0a4.21,4.21,0,0,0,.22,1.45,2,2,0,0,0,3.76,0,4.86,4.86,0,0,0,0-2.89,1.94,1.94,0,0,0-.69-.93,2,2,0,0,0-1.2-.33,1.83,1.83,0,0,0-1.59.71A3.39,3.39,0,0,0,294.78,19.09Z"/><path class="cls-1" d="M303,22.58h-1.06V12.7H303Z"/><path class="cls-1" d="M306.23,22.58h-1.06V12.7h1.06Z"/></svg>