<?xml version="1.0" encoding="utf-8"?>
<!-- Generator: Adobe Illustrator 25.2.1, SVG Export Plug-In . SVG Version: 6.00 Build 0)  -->
<svg version="1.1" id="Capa_1" xmlns="http://www.w3.org/2000/svg" xmlns:xlink="http://www.w3.org/1999/xlink" x="0px" y="0px"
	 viewBox="0 0 440 76" style="enable-background:new 0 0 440 76;" xml:space="preserve">
<style type="text/css">
	.st0{fill:#676766;}
	.st1{fill:#3C63AD;}
	.st2{fill:#333333;}
	.st3{fill-rule:evenodd;clip-rule:evenodd;fill:#686867;}
	.st4{fill:#686867;}
</style>
<path class="st0" d="M35.6,18l-1-2.5h-3.1l-1,2.5h-0.9l3.1-7.9h0.8l3,7.9H35.6z M34.3,14.7l-0.9-2.5l-0.1-0.3c0-0.1-0.1-0.3-0.1-0.4
	s-0.1-0.3-0.1-0.4c0,0.1-0.1,0.3-0.1,0.4s-0.1,0.3-0.1,0.4l-0.1,0.3l-0.9,2.5L34.3,14.7z M34.6,7.6v0.1c-0.1,0.1-0.2,0.2-0.3,0.4
	l-0.4,0.5c-0.2,0.2-0.3,0.3-0.5,0.4c-0.1,0.1-0.3,0.3-0.4,0.4h-0.6V9.2c0.1-0.2,0.3-0.3,0.4-0.5c0.1-0.2,0.3-0.4,0.4-0.6
	s0.2-0.4,0.3-0.6L34.6,7.6z"/>
<path class="st0" d="M40.1,12h0.4c0.1,0,0.2,0,0.3,0.1l-0.1,0.8l-0.3-0.1h-0.3c-0.2,0-0.5,0.1-0.7,0.1c-0.2,0.1-0.4,0.2-0.5,0.4
	c-0.2,0.2-0.3,0.4-0.4,0.6c-0.1,0.3-0.1,0.5-0.1,0.8V18h-0.9v-5.9h0.7l0.1,1.1l0,0c0.1-0.2,0.3-0.4,0.4-0.6c0.2-0.2,0.4-0.3,0.6-0.4
	C39.6,12.1,39.9,12,40.1,12z"/>
<path class="st0" d="M44.2,12c0.4,0,0.9,0.1,1.3,0.3c0.4,0.2,0.7,0.5,0.8,0.9c0.2,0.4,0.3,0.9,0.3,1.4v0.6h-4.1
	c0,0.6,0.2,1.1,0.5,1.6c0.4,0.4,0.9,0.6,1.4,0.5c0.3,0,0.7,0,1-0.1c0.3-0.1,0.6-0.2,0.9-0.3v0.8c-0.3,0.1-0.6,0.2-0.9,0.3
	c-0.3,0.1-0.7,0.1-1,0.1c-0.5,0-1-0.1-1.5-0.3c-0.4-0.2-0.8-0.6-1-1c-0.2-0.5-0.4-1.1-0.3-1.6c0-0.6,0.1-1.1,0.3-1.6
	c0.2-0.4,0.5-0.8,0.9-1.1C43.3,12.2,43.7,12,44.2,12z M44.2,12.7c-0.4,0-0.8,0.1-1.1,0.5c-0.3,0.4-0.5,0.8-0.5,1.3h3.1
	c0-0.3-0.1-0.6-0.2-0.9c-0.1-0.2-0.3-0.4-0.5-0.6C44.8,12.8,44.5,12.8,44.2,12.7L44.2,12.7z"/>
<path class="st0" d="M50.3,12c0.6,0,1.1,0.1,1.6,0.5c0.4,0.4,0.6,1,0.5,1.5v4h-0.7l-0.2-0.9l0,0c-0.2,0.2-0.3,0.4-0.5,0.5
	c-0.2,0.1-0.4,0.3-0.6,0.3c-0.3,0.1-0.6,0.1-0.9,0.1c-0.3,0-0.7-0.1-1-0.2c-0.3-0.1-0.5-0.3-0.7-0.6c-0.2-0.3-0.3-0.7-0.2-1
	c0-0.5,0.2-1.1,0.7-1.4c0.6-0.4,1.4-0.5,2.1-0.5h1v-0.4c0-0.4-0.1-0.8-0.3-1.1c-0.3-0.2-0.6-0.3-0.9-0.3c-0.3,0-0.6,0-0.9,0.1
	c-0.3,0.1-0.5,0.2-0.8,0.3l-0.3-0.7c0.3-0.1,0.6-0.3,0.9-0.4C49.6,12.1,50,12,50.3,12z M51.5,15.1h-0.9c-0.5,0-1.1,0.1-1.5,0.4
	c-0.3,0.2-0.5,0.5-0.5,0.9c0,0.3,0.1,0.6,0.3,0.8c0.2,0.2,0.5,0.3,0.8,0.2c0.4,0,0.9-0.1,1.3-0.3c0.4-0.3,0.5-0.8,0.5-1.3L51.5,15.1
	z"/>
<path class="st0" d="M59.9,12c0.7,0,1.3,0.2,1.8,0.8c0.5,0.7,0.7,1.5,0.7,2.3c0,0.6-0.1,1.2-0.3,1.7c-0.2,0.4-0.5,0.8-0.8,1
	c-0.4,0.2-0.8,0.4-1.3,0.4c-0.3,0-0.6,0-0.8-0.1c-0.2-0.1-0.4-0.2-0.6-0.3c-0.2-0.1-0.3-0.3-0.4-0.5h-0.1c0,0.1,0,0.3,0,0.5
	s0,0.4,0,0.5v2.4h-0.8v-8.5h0.7L58,13l0,0c0.1-0.2,0.3-0.3,0.4-0.5c0.2-0.2,0.4-0.3,0.6-0.4C59.3,12.1,59.6,12,59.9,12z M59.7,12.8
	c-0.3,0-0.7,0.1-1,0.2c-0.3,0.2-0.4,0.4-0.5,0.7C58,14.1,58,14.5,58,14.9v0.2c0,0.4,0,0.9,0.2,1.3c0.1,0.3,0.3,0.6,0.5,0.8
	c0.3,0.2,0.6,0.3,1,0.3c0.3,0,0.7-0.1,0.9-0.3c0.3-0.2,0.4-0.5,0.5-0.8c0.1-0.4,0.2-0.8,0.2-1.2c0-0.6-0.1-1.2-0.4-1.7
	C60.7,13,60.2,12.8,59.7,12.8L59.7,12.8z"/>
<path class="st0" d="M66.5,12h0.4c0.1,0,0.2,0,0.3,0.1l-0.1,0.8l-0.3-0.1h-0.3c-0.2,0-0.5,0-0.7,0.1c-0.2,0.1-0.4,0.2-0.6,0.4
	c-0.2,0.2-0.3,0.4-0.4,0.6c-0.1,0.3-0.1,0.5-0.1,0.8V18h-0.9v-5.9h0.7l0.1,1.1l0,0c0.1-0.2,0.3-0.4,0.4-0.6c0.2-0.2,0.4-0.3,0.6-0.4
	C65.9,12.1,66.2,12,66.5,12z"/>
<path class="st0" d="M73.4,15.1c0,0.4-0.1,0.9-0.2,1.3c-0.1,0.4-0.3,0.7-0.5,1c-0.2,0.3-0.5,0.5-0.9,0.6c-0.4,0.1-0.7,0.2-1.1,0.2
	c-0.4,0-0.7-0.1-1.1-0.2c-0.3-0.1-0.6-0.3-0.8-0.6c-0.3-0.3-0.4-0.6-0.6-1c-0.1-0.4-0.2-0.9-0.2-1.3c0-0.6,0.1-1.1,0.3-1.6
	c0.2-0.4,0.5-0.8,0.9-1c0.4-0.3,0.9-0.4,1.4-0.4c0.5,0,1,0.1,1.4,0.4c0.4,0.2,0.7,0.6,0.9,1C73.3,13.9,73.4,14.5,73.4,15.1z
	 M68.9,15.1c0,0.4,0.1,0.8,0.2,1.2c0.1,0.3,0.3,0.6,0.6,0.8c0.6,0.4,1.4,0.4,2,0c0.3-0.2,0.5-0.5,0.6-0.8c0.1-0.4,0.2-0.8,0.2-1.2
	c0-0.4-0.1-0.8-0.2-1.2c-0.1-0.3-0.3-0.6-0.6-0.8c-0.3-0.2-0.6-0.3-1-0.3c-0.5,0-1,0.2-1.3,0.6C69,13.9,68.9,14.5,68.9,15.1z"/>
<path class="st0" d="M76.8,17.4c0.1,0,0.3,0,0.4,0l0.4-0.1V18c-0.1,0.1-0.3,0.1-0.4,0.1c-0.2,0-0.4,0-0.5,0c-0.3,0-0.6-0.1-0.8-0.2
	c-0.3-0.1-0.5-0.3-0.6-0.5c-0.2-0.3-0.3-0.7-0.2-1.1v-3.5h-0.8v-0.4L75,12l0.4-1.3h0.5v1.4h1.7v0.7h-1.7v3.5c0,0.3,0.1,0.6,0.2,0.8
	C76.3,17.3,76.6,17.4,76.8,17.4z"/>
<path class="st0" d="M81.1,12c0.4,0,0.9,0.1,1.3,0.3c0.4,0.2,0.7,0.5,0.8,0.9c0.2,0.4,0.3,0.9,0.3,1.4v0.6h-4.1
	c0,0.6,0.2,1.2,0.5,1.6c0.4,0.4,0.9,0.6,1.4,0.5c0.3,0,0.7,0,1-0.1c0.3-0.1,0.6-0.2,0.9-0.3v0.8C83,17.9,82.7,18,82.4,18
	c-0.3,0.1-0.7,0.1-1,0.1c-0.5,0-1-0.1-1.5-0.4c-0.4-0.2-0.8-0.6-1-1c-0.2-0.5-0.4-1.1-0.3-1.6c0-0.6,0.1-1.1,0.3-1.6
	C79.3,12.6,80.1,12,81.1,12z M81.1,12.7c-0.4,0-0.8,0.1-1.1,0.5c-0.3,0.4-0.5,0.8-0.5,1.3h3.1c0-0.3-0.1-0.6-0.2-0.9
	c-0.1-0.3-0.3-0.5-0.5-0.6C81.7,12.8,81.4,12.7,81.1,12.7L81.1,12.7z"/>
<path class="st0" d="M86.7,20.7c-0.6,0-1.2-0.1-1.8-0.4c-0.4-0.3-0.7-0.7-0.6-1.2c0-0.3,0.1-0.7,0.3-1c0.3-0.3,0.6-0.5,1-0.5
	c-0.2-0.1-0.3-0.2-0.4-0.3c-0.1-0.1-0.2-0.3-0.2-0.5c0-0.2,0.1-0.4,0.2-0.6c0.2-0.2,0.3-0.4,0.6-0.5c-0.3-0.1-0.6-0.4-0.8-0.6
	c-0.2-0.3-0.3-0.6-0.3-1c0-0.4,0.1-0.8,0.3-1.1c0.2-0.3,0.4-0.5,0.8-0.7c0.4-0.2,0.8-0.3,1.2-0.2h0.3h0.3h0.2h2v0.6l-1.1,0.1
	c0.1,0.2,0.2,0.3,0.3,0.5c0.1,0.2,0.1,0.4,0.1,0.6c0,0.5-0.2,1.1-0.6,1.4c-0.5,0.4-1,0.6-1.6,0.5c-0.2,0-0.3,0-0.5,0
	c-0.2,0.1-0.3,0.2-0.4,0.3c-0.1,0.1-0.1,0.3-0.1,0.4c0,0.1,0,0.2,0.1,0.3c0.1,0.1,0.2,0.1,0.3,0.1c0.2,0,0.3,0,0.5,0h1
	c0.5,0,1,0.1,1.5,0.4c0.3,0.3,0.5,0.7,0.5,1.2c0,0.6-0.3,1.2-0.8,1.5C88.3,20.4,87.5,20.7,86.7,20.7z M86.7,20c0.4,0,0.8,0,1.2-0.1
	c0.3-0.1,0.5-0.2,0.7-0.4c0.2-0.2,0.2-0.4,0.2-0.7c0-0.2,0-0.4-0.2-0.5c-0.1-0.1-0.3-0.2-0.5-0.2c-0.3,0-0.5-0.1-0.8-0.1h-1
	c-0.2,0-0.5,0-0.7,0.1c-0.2,0.1-0.4,0.2-0.5,0.4c-0.1,0.2-0.2,0.4-0.2,0.6c0,0.3,0.1,0.6,0.4,0.7C85.9,19.9,86.3,20,86.7,20L86.7,20
	z M86.9,15.3c0.4,0,0.7-0.1,1-0.3c0.2-0.3,0.3-0.6,0.3-0.9c0-0.4-0.1-0.7-0.3-1c-0.3-0.2-0.6-0.4-1-0.3c-0.3,0-0.7,0.1-0.9,0.3
	c-0.2,0.3-0.4,0.6-0.3,1c0,0.3,0.1,0.7,0.3,0.9C86.3,15.2,86.6,15.3,86.9,15.3L86.9,15.3z"/>
<path class="st0" d="M91.5,9.9c0.1,0,0.3,0,0.4,0.1c0.1,0.1,0.2,0.3,0.2,0.4c0,0.2,0,0.3-0.2,0.4c-0.1,0.1-0.2,0.1-0.4,0.1
	c-0.1,0-0.3,0-0.4-0.1c-0.1-0.1-0.2-0.3-0.2-0.4c0-0.2,0-0.3,0.2-0.4C91.2,10,91.3,9.9,91.5,9.9z M91.9,12.1V18H91v-5.9H91.9z"/>
<path class="st0" d="M95.9,18.1c-0.7,0-1.3-0.3-1.8-0.8c-0.5-0.7-0.7-1.5-0.7-2.3c-0.1-0.8,0.2-1.6,0.7-2.3c0.4-0.5,1.1-0.8,1.8-0.8
	c0.3,0,0.5,0,0.8,0.1c0.2,0.1,0.4,0.2,0.6,0.3c0.2,0.1,0.3,0.3,0.4,0.5h0.1c0-0.1,0-0.3,0-0.5s0-0.4,0-0.5V9.7h0.9V18H98l-0.1-0.8
	l0,0c-0.1,0.2-0.3,0.3-0.4,0.5c-0.2,0.1-0.4,0.3-0.6,0.3C96.5,18.1,96.2,18.1,95.9,18.1z M96,17.4c0.5,0.1,1-0.2,1.3-0.5
	c0.3-0.5,0.4-1,0.4-1.6v-0.2c0-0.6-0.1-1.2-0.4-1.7c-0.3-0.4-0.8-0.7-1.4-0.6c-0.5,0-1,0.2-1.2,0.6c-0.3,0.5-0.4,1.1-0.4,1.7
	c0,0.6,0.1,1.2,0.4,1.7C95.1,17.2,95.5,17.4,96,17.4L96,17.4z"/>
<path class="st0" d="M102.7,12c0.6,0,1.1,0.1,1.6,0.5c0.4,0.4,0.6,1,0.5,1.5v4h-0.7l-0.2-0.9l0,0c-0.2,0.2-0.3,0.4-0.5,0.5
	c-0.2,0.1-0.4,0.3-0.6,0.3c-0.3,0.1-0.6,0.1-0.9,0.1c-0.3,0-0.7-0.1-1-0.2c-0.3-0.1-0.5-0.3-0.7-0.6c-0.2-0.3-0.3-0.7-0.2-1
	c0-0.5,0.2-1.1,0.7-1.4c0.6-0.4,1.4-0.5,2.1-0.5h1v-0.4c0-0.4-0.1-0.8-0.3-1.1c-0.3-0.2-0.6-0.3-0.9-0.3c-0.3,0-0.6,0-0.9,0.1
	c-0.3,0.1-0.5,0.2-0.8,0.3l-0.3-0.7c0.3-0.1,0.6-0.3,0.9-0.4C102,12.1,102.3,12,102.7,12z M103.9,15.1H103c-0.5,0-1.1,0.1-1.6,0.4
	c-0.3,0.2-0.5,0.5-0.4,0.9c0,0.3,0.1,0.6,0.3,0.8c0.2,0.2,0.5,0.3,0.8,0.2c0.5,0,0.9-0.1,1.3-0.4c0.4-0.3,0.5-0.8,0.5-1.3
	L103.9,15.1z"/>
<path class="st1" d="M16.5,28.2c0.7-0.1,1.4,0.1,2,0.5c0.4,0.4,0.7,1,0.6,1.5c0,0.3,0,0.6-0.1,0.9c-0.1,0.3-0.3,0.5-0.5,0.7
	c-0.3,0.2-0.5,0.4-0.9,0.5c-0.4,0.1-0.9,0.2-1.3,0.2h-0.9v2.8h-0.8v-7.1H16.5z M16.4,28.9h-1v2.9h0.8c0.4,0,0.8,0,1.1-0.1
	c0.3-0.1,0.5-0.2,0.7-0.5c0.2-0.3,0.2-0.6,0.2-0.9c0-0.4-0.1-0.8-0.5-1.1C17.4,29,16.9,28.9,16.4,28.9z"/>
<path class="st1" d="M22.9,29.9h0.3l0.3,0l-0.1,0.8l-0.3,0c-0.1,0-0.2,0-0.3,0c-0.4,0-0.8,0.2-1.1,0.5c-0.2,0.2-0.3,0.4-0.3,0.6
	c-0.1,0.2-0.1,0.5-0.1,0.8v2.9h-0.8V30h0.7l0.1,1l0,0c0.1-0.2,0.2-0.4,0.4-0.5c0.2-0.2,0.3-0.3,0.5-0.4
	C22.4,29.9,22.7,29.9,22.9,29.9z"/>
<path class="st1" d="M25,28c0.1,0,0.3,0,0.4,0.1c0.2,0.2,0.2,0.6,0,0.8c-0.1,0.1-0.2,0.1-0.4,0.1c-0.1,0-0.3,0-0.3-0.1
	c-0.2-0.2-0.2-0.6,0-0.8C24.7,28,24.9,28,25,28z M25.4,30v5.3h-0.8V30H25.4z"/>
<path class="st1" d="M28.3,35.3l-2-5.4h0.9l1.2,3.2c0.1,0.2,0.2,0.5,0.2,0.7c0.1,0.2,0.1,0.4,0.2,0.7l0,0c0-0.2,0.1-0.4,0.2-0.7
	s0.2-0.5,0.2-0.7l1.2-3.2h0.9l-2,5.3L28.3,35.3z"/>
<path class="st1" d="M34.1,29.9c0.5,0,1,0.1,1.4,0.4c0.3,0.4,0.5,0.9,0.5,1.4v3.6h-0.6l-0.2-0.8l0,0c-0.1,0.2-0.3,0.3-0.5,0.5
	c-0.2,0.1-0.4,0.2-0.6,0.3c-0.3,0.1-0.5,0.1-0.8,0.1c-0.3,0-0.6-0.1-0.9-0.2c-0.2-0.1-0.5-0.3-0.6-0.5c-0.2-0.3-0.2-0.6-0.2-0.9
	c0-0.5,0.2-1,0.6-1.2c0.6-0.3,1.3-0.5,1.9-0.5h0.9v-0.3c0-0.4-0.1-0.7-0.3-1c-0.2-0.2-0.5-0.3-0.8-0.3c-0.3,0-0.5,0-0.8,0.1
	c-0.3,0.1-0.5,0.2-0.7,0.3l-0.2-0.6c0.3-0.1,0.5-0.2,0.8-0.3C33.5,30,33.8,29.9,34.1,29.9z M35.2,32.7h-0.8c-0.5,0-1,0.1-1.4,0.3
	c-0.3,0.2-0.4,0.5-0.4,0.8c0,0.3,0.1,0.5,0.3,0.7c0.2,0.2,0.5,0.2,0.7,0.2c0.4,0,0.8-0.1,1.2-0.4c0.3-0.3,0.5-0.7,0.5-1.2L35.2,32.7
	z"/>
<path class="st1" d="M39.8,35.4c-0.4,0-0.9-0.1-1.3-0.3c-0.4-0.2-0.7-0.5-0.8-0.9c-0.2-0.5-0.3-1-0.3-1.5c0-0.5,0.1-1.1,0.3-1.6
	c0.2-0.4,0.5-0.7,0.9-0.9c0.4-0.2,0.8-0.3,1.3-0.3c0.3,0,0.5,0,0.8,0.1c0.2,0,0.4,0.1,0.6,0.2L41,30.9c-0.2-0.1-0.4-0.1-0.6-0.2
	c-0.2,0-0.4-0.1-0.6-0.1c-0.3,0-0.6,0.1-0.9,0.2c-0.3,0.2-0.4,0.4-0.5,0.7c-0.1,0.4-0.2,0.8-0.2,1.2c0,0.4,0.1,0.8,0.2,1.1
	c0.1,0.3,0.3,0.5,0.5,0.7c0.3,0.2,0.6,0.3,0.9,0.2c0.3,0,0.5,0,0.8-0.1c0.2-0.1,0.4-0.1,0.6-0.2v0.7c-0.2,0.1-0.4,0.2-0.6,0.2
	C40.3,35.4,40.1,35.4,39.8,35.4z"/>
<path class="st1" d="M42.9,28c0.1,0,0.2,0,0.3,0.1c0.2,0.2,0.2,0.6,0,0.8c-0.1,0.1-0.2,0.1-0.3,0.1c-0.1,0-0.3,0-0.3-0.1
	c-0.2-0.2-0.2-0.6,0-0.8C42.6,28,42.7,28,42.9,28z M43.3,30v5.3h-0.8V30H43.3z"/>
<path class="st1" d="M46.9,35.4c-0.6,0-1.2-0.2-1.6-0.7c-0.4-0.6-0.7-1.3-0.6-2.1c-0.1-0.7,0.2-1.5,0.6-2.1c0.4-0.5,1-0.7,1.6-0.7
	c0.3,0,0.5,0,0.7,0.1c0.2,0.1,0.4,0.2,0.5,0.3c0.1,0.1,0.3,0.3,0.4,0.4h0.1c0-0.1,0-0.2,0-0.4s0-0.3,0-0.4v-2.1h0.8v7.6h-0.7
	l-0.1-0.8l0,0c-0.1,0.2-0.2,0.3-0.4,0.4c-0.2,0.1-0.4,0.2-0.5,0.3C47.5,35.4,47.2,35.5,46.9,35.4z M47,34.8c0.5,0,0.9-0.1,1.2-0.5
	c0.3-0.4,0.4-0.9,0.3-1.5v-0.2c0-0.5-0.1-1.1-0.3-1.6c-0.3-0.4-0.8-0.6-1.2-0.5c-0.4,0-0.9,0.2-1.1,0.6c-0.3,0.5-0.4,1-0.4,1.6
	c0,0.5,0.1,1.1,0.4,1.5C46.1,34.6,46.6,34.8,47,34.8z"/>
<path class="st1" d="M53.1,29.9c0.5,0,1,0.1,1.4,0.4c0.4,0.4,0.5,0.9,0.5,1.4v3.6h-0.6l-0.2-0.8l0,0c-0.1,0.2-0.3,0.3-0.5,0.5
	c-0.2,0.1-0.4,0.2-0.6,0.3c-0.3,0.1-0.5,0.1-0.8,0.1c-0.3,0-0.6-0.1-0.9-0.2c-0.3-0.1-0.5-0.3-0.6-0.5c-0.2-0.3-0.2-0.6-0.2-0.9
	c0-0.5,0.2-1,0.6-1.2c0.6-0.3,1.3-0.5,1.9-0.5h0.9v-0.3c0-0.4-0.1-0.7-0.3-1c-0.2-0.2-0.5-0.3-0.8-0.3c-0.3,0-0.5,0-0.8,0.1
	c-0.3,0.1-0.5,0.2-0.7,0.3l-0.2-0.6c0.2-0.1,0.5-0.3,0.8-0.3C52.4,29.9,52.8,29.9,53.1,29.9z M54.2,32.7h-0.8c-0.5,0-1,0.1-1.4,0.3
	c-0.3,0.2-0.4,0.5-0.4,0.8c0,0.3,0.1,0.5,0.3,0.7c0.2,0.2,0.5,0.2,0.7,0.2c0.4,0,0.8-0.1,1.2-0.4c0.3-0.3,0.5-0.7,0.5-1.2L54.2,32.7
	z"/>
<path class="st1" d="M58.5,35.4c-0.6,0-1.2-0.2-1.6-0.7c-0.4-0.6-0.6-1.3-0.6-2.1c0-0.8,0.2-1.5,0.7-2.1c0.4-0.5,1-0.7,1.6-0.7
	c0.3,0,0.5,0,0.8,0.1c0.2,0.1,0.4,0.2,0.5,0.3c0.2,0.1,0.3,0.3,0.4,0.4h0.1c0-0.1,0-0.3,0-0.4c0-0.1,0-0.3,0-0.4v-2.1h0.8v7.6h-0.7
	l-0.1-0.8l0,0c-0.1,0.2-0.2,0.3-0.4,0.4c-0.2,0.1-0.4,0.2-0.6,0.3C59.2,35.4,58.9,35.5,58.5,35.4z M58.7,34.8c0.5,0,0.9-0.1,1.2-0.5
	c0.3-0.4,0.4-0.9,0.4-1.5v-0.2c0-0.5-0.1-1.1-0.3-1.6c-0.3-0.4-0.8-0.6-1.2-0.5c-0.4,0-0.9,0.2-1.1,0.6c-0.3,0.5-0.4,1-0.4,1.6
	c0,0.5,0.1,1.1,0.4,1.5C57.8,34.6,58.2,34.8,58.7,34.8z"/>
<path class="st1" d="M72.1,27.7h0.7v10h-0.7V27.7z"/>
<path class="st1" d="M88,33.4c0,0.4-0.1,0.8-0.3,1.1c-0.2,0.3-0.5,0.5-0.9,0.7c-0.4,0.2-0.9,0.2-1.3,0.2c-0.3,0-0.5,0-0.8,0
	c-0.2,0-0.4-0.1-0.7-0.1c-0.2,0-0.4-0.1-0.5-0.2v-0.8c0.3,0.1,0.6,0.2,0.9,0.3c0.4,0.1,0.7,0.1,1.1,0.1c0.3,0,0.6,0,0.9-0.1
	c0.2-0.1,0.4-0.2,0.6-0.4c0.2-0.4,0.2-0.9,0-1.3c-0.1-0.2-0.3-0.3-0.5-0.5c-0.3-0.2-0.7-0.3-1-0.4c-0.3-0.1-0.5-0.2-0.8-0.4
	c-0.2-0.1-0.4-0.3-0.6-0.4c-0.2-0.2-0.3-0.4-0.4-0.6c-0.1-0.2-0.1-0.5-0.1-0.7c0-0.4,0.1-0.7,0.3-1c0.2-0.3,0.5-0.5,0.8-0.6
	c0.4-0.2,0.8-0.2,1.2-0.2c0.4,0,0.7,0,1.1,0.1c0.3,0.1,0.6,0.2,0.9,0.3l-0.3,0.7C87.3,29.1,87,29,86.7,29c-0.3-0.1-0.6-0.1-0.9-0.1
	c-0.3,0-0.5,0-0.8,0.1c-0.2,0.1-0.4,0.2-0.5,0.4c-0.1,0.2-0.2,0.4-0.2,0.6c0,0.2,0,0.4,0.2,0.6c0.1,0.2,0.3,0.3,0.5,0.4
	c0.3,0.2,0.6,0.3,0.9,0.4c0.4,0.1,0.7,0.3,1.1,0.5c0.3,0.1,0.5,0.4,0.7,0.6C87.9,32.8,88,33.1,88,33.4z"/>
<path class="st1" d="M91.4,29.9c0.4,0,0.8,0.1,1.2,0.3c0.3,0.2,0.6,0.5,0.7,0.8c0.2,0.4,0.3,0.8,0.3,1.3v0.5h-3.7
	c0,0.5,0.1,1,0.5,1.4c0.3,0.3,0.8,0.5,1.3,0.5c0.3,0,0.6,0,0.9-0.1c0.3-0.1,0.5-0.2,0.8-0.3v0.7c-0.3,0.1-0.5,0.2-0.8,0.3
	c-0.3,0.1-0.6,0.1-0.9,0.1c-0.5,0-0.9-0.1-1.3-0.3c-0.4-0.2-0.7-0.5-0.9-0.9c-0.2-0.5-0.4-1-0.3-1.5c0-0.5,0.1-1,0.3-1.5
	c0.2-0.4,0.5-0.8,0.8-1C90.5,30,90.9,29.9,91.4,29.9z M91.4,30.6c-0.4,0-0.7,0.1-1,0.4c-0.3,0.3-0.4,0.8-0.5,1.2h2.8
	c0-0.3,0-0.6-0.1-0.8c-0.1-0.2-0.2-0.4-0.4-0.6C91.9,30.6,91.7,30.5,91.4,30.6L91.4,30.6z"/>
<path class="st1" d="M96.4,37.8c-0.6,0-1.1-0.1-1.6-0.4c-0.4-0.2-0.6-0.7-0.6-1.1c0-0.3,0.1-0.6,0.3-0.9c0.2-0.2,0.5-0.4,0.9-0.5
	c-0.1-0.1-0.3-0.2-0.4-0.3c-0.1-0.1-0.1-0.3-0.1-0.5c0-0.2,0.1-0.4,0.2-0.5c0.1-0.2,0.3-0.3,0.5-0.4c-0.3-0.1-0.5-0.3-0.7-0.6
	c-0.2-0.3-0.3-0.6-0.3-1c0-0.3,0.1-0.7,0.2-1c0.2-0.3,0.4-0.5,0.7-0.6c0.3-0.2,0.7-0.2,1.1-0.2H97c0.1,0,0.2,0,0.3,0l0.2,0h1.8v0.5
	l-1,0.1c0.1,0.1,0.2,0.3,0.2,0.5c0.1,0.2,0.1,0.4,0.1,0.6c0.1,0.5-0.1,1-0.5,1.4c-0.4,0.3-1,0.5-1.5,0.5h-0.5
	c-0.1,0.1-0.3,0.2-0.4,0.3c-0.1,0.1-0.1,0.2-0.1,0.4c0,0.1,0,0.2,0.1,0.2c0.1,0.1,0.2,0.1,0.3,0.1c0.1,0,0.3,0,0.4,0h0.9
	c0.5,0,0.9,0.1,1.3,0.4c0.3,0.3,0.5,0.7,0.5,1.1c0,0.6-0.3,1.1-0.7,1.4C97.9,37.7,97.2,37.8,96.4,37.8z M96.4,37.1
	c0.4,0,0.7,0,1.1-0.1c0.2-0.1,0.5-0.2,0.7-0.4c0.1-0.2,0.2-0.4,0.2-0.6c0-0.3-0.2-0.7-0.5-0.7c0,0,0,0,0,0c-0.2,0-0.5-0.1-0.7-0.1
	h-0.9c-0.2,0-0.4,0-0.6,0.1c-0.4,0.1-0.6,0.5-0.6,0.9c0,0.3,0.1,0.5,0.4,0.7C95.7,37.1,96.1,37.1,96.4,37.1L96.4,37.1z M96.6,32.8
	c0.3,0,0.6-0.1,0.9-0.3c0.2-0.2,0.3-0.5,0.3-0.9c0-0.3-0.1-0.7-0.3-0.9c-0.2-0.2-0.6-0.3-0.9-0.3c-0.3,0-0.6,0.1-0.9,0.3
	c-0.2,0.3-0.3,0.6-0.3,0.9c0,0.3,0.1,0.6,0.3,0.8C96,32.8,96.3,32.9,96.6,32.8L96.6,32.8z"/>
<path class="st1" d="M104.8,30v5.3h-0.7l-0.1-0.8h0c-0.1,0.2-0.3,0.3-0.4,0.5c-0.2,0.1-0.4,0.2-0.6,0.3c-0.2,0.1-0.5,0.1-0.7,0.1
	c-0.4,0-0.7-0.1-1.1-0.2c-0.3-0.1-0.5-0.4-0.7-0.6c-0.2-0.3-0.2-0.7-0.2-1.1V30h0.8v3.5c0,0.4,0.1,0.7,0.3,1
	c0.2,0.2,0.6,0.4,0.9,0.3c0.3,0,0.7-0.1,1-0.2c0.2-0.2,0.4-0.4,0.5-0.7c0.1-0.3,0.2-0.7,0.2-1.1V30H104.8z"/>
<path class="st1" d="M108.9,29.9h0.3l0.3,0l-0.1,0.8l-0.3,0c-0.1,0-0.2,0-0.3,0c-0.4,0-0.8,0.2-1.1,0.5c-0.2,0.2-0.3,0.4-0.3,0.6
	c-0.1,0.2-0.1,0.5-0.1,0.8v2.9h-0.8V30h0.7l0.1,1l0,0c0.1-0.2,0.2-0.4,0.4-0.5c0.2-0.2,0.3-0.3,0.5-0.4
	C108.4,29.9,108.7,29.9,108.9,29.9z"/>
<path class="st1" d="M111,28c0.1,0,0.2,0,0.3,0.1c0.2,0.2,0.2,0.6,0,0.8c-0.1,0.1-0.2,0.1-0.3,0.1c-0.1,0-0.3,0-0.3-0.1
	c-0.2-0.2-0.2-0.6,0-0.8C110.7,28,110.9,28,111,28z M111.4,30v5.3h-0.8V30H111.4z"/>
<path class="st1" d="M115,35.4c-0.6,0-1.2-0.2-1.6-0.7c-0.4-0.6-0.6-1.3-0.6-2.1c-0.1-0.7,0.2-1.5,0.6-2.1c0.4-0.5,1-0.7,1.6-0.7
	c0.3,0,0.5,0,0.8,0.1c0.2,0.1,0.4,0.2,0.5,0.3c0.2,0.1,0.3,0.3,0.4,0.4h0.1c0-0.1,0-0.3,0-0.4c0-0.1,0-0.3,0-0.4v-2.1h0.8v7.6h-0.7
	l-0.1-0.8l0,0c-0.1,0.2-0.2,0.3-0.4,0.4c-0.2,0.1-0.3,0.2-0.6,0.3C115.6,35.4,115.3,35.5,115,35.4z M115.1,34.8
	c0.5,0,0.9-0.1,1.2-0.5c0.3-0.4,0.4-0.9,0.4-1.5v-0.2c0-0.5-0.1-1.1-0.3-1.6c-0.3-0.4-0.8-0.6-1.2-0.5c-0.4,0-0.9,0.2-1.1,0.6
	c-0.3,0.5-0.4,1-0.4,1.6c0,0.5,0.1,1.1,0.4,1.5C114.3,34.6,114.7,34.8,115.1,34.8L115.1,34.8z"/>
<path class="st1" d="M121.2,29.9c0.5,0,1,0.1,1.4,0.4c0.3,0.4,0.5,0.9,0.5,1.4v3.6h-0.6l-0.2-0.8l0,0c-0.1,0.2-0.3,0.3-0.5,0.5
	c-0.2,0.1-0.4,0.2-0.6,0.3c-0.3,0.1-0.5,0.1-0.8,0.1c-0.3,0-0.6-0.1-0.9-0.2c-0.2-0.1-0.5-0.3-0.6-0.5c-0.2-0.3-0.2-0.6-0.2-0.9
	c0-0.5,0.2-1,0.6-1.2c0.6-0.3,1.3-0.5,1.9-0.5h0.9v-0.3c0-0.4-0.1-0.7-0.3-1c-0.2-0.2-0.5-0.3-0.8-0.3c-0.3,0-0.5,0-0.8,0.1
	c-0.2,0.1-0.5,0.2-0.7,0.3l-0.2-0.6c0.3-0.1,0.5-0.2,0.8-0.3C120.6,30,120.9,29.9,121.2,29.9z M122.3,32.7h-0.8
	c-0.5,0-1,0.1-1.4,0.3c-0.3,0.2-0.4,0.5-0.4,0.8c0,0.3,0.1,0.5,0.3,0.7c0.2,0.2,0.5,0.2,0.7,0.2c0.4,0,0.8-0.1,1.2-0.4
	c0.3-0.3,0.5-0.7,0.5-1.2L122.3,32.7z"/>
<path class="st1" d="M126.7,35.4c-0.6,0-1.2-0.2-1.6-0.7c-0.4-0.6-0.6-1.3-0.6-2.1c-0.1-0.7,0.2-1.5,0.6-2.1c0.4-0.5,1-0.7,1.6-0.7
	c0.3,0,0.5,0,0.7,0.1c0.2,0.1,0.4,0.2,0.5,0.3c0.1,0.1,0.3,0.3,0.4,0.4h0.1c0-0.1,0-0.2,0-0.4s0-0.3,0-0.4v-2.1h0.8v7.6h-0.6
	l-0.1-0.8l0,0c-0.1,0.2-0.3,0.3-0.5,0.4c-0.2,0.1-0.4,0.2-0.6,0.3C127.2,35.4,126.9,35.4,126.7,35.4z M126.8,34.8
	c0.5,0,0.9-0.1,1.2-0.5c0.3-0.4,0.4-0.9,0.4-1.5v-0.2c0-0.5-0.1-1.1-0.3-1.6c-0.3-0.4-0.8-0.6-1.2-0.5c-0.4,0-0.9,0.2-1.1,0.6
	c-0.3,0.5-0.4,1-0.4,1.6c0,0.5,0.1,1.1,0.4,1.5C126,34.6,126.4,34.8,126.8,34.8z"/>
<path class="st2" d="M14.5,43.7h1.8c0.6,0,1.2,0.1,1.8,0.4c0.4,0.3,0.6,0.7,0.6,1.2c0,0.2,0,0.5-0.1,0.7c-0.1,0.2-0.2,0.4-0.4,0.5
	c-0.2,0.1-0.4,0.2-0.7,0.3v0c0.3,0,0.5,0.1,0.8,0.2c0.2,0.1,0.4,0.3,0.5,0.5c0.1,0.2,0.2,0.5,0.2,0.8c0,0.4-0.1,0.7-0.3,1
	c-0.2,0.3-0.5,0.5-0.8,0.6c-0.4,0.1-0.8,0.2-1.2,0.2h-2.2V43.7z M15.2,46.4h1.2c0.4,0,0.8-0.1,1.2-0.3c0.2-0.2,0.3-0.5,0.3-0.8
	c0-0.3-0.1-0.6-0.4-0.8c-0.4-0.2-0.8-0.3-1.2-0.2h-1.1L15.2,46.4z M15.2,47v2.4h1.3c0.4,0,0.9-0.1,1.2-0.3c0.2-0.2,0.4-0.6,0.4-0.9
	c0-0.2,0-0.4-0.2-0.6c-0.1-0.2-0.3-0.3-0.5-0.4c-0.3-0.1-0.7-0.2-1-0.1H15.2z"/>
<path class="st2" d="M22,45.2c0.5,0,0.9,0.1,1.3,0.4c0.3,0.3,0.5,0.8,0.4,1.2v3.3h-0.5L23,49.4l0,0c-0.1,0.2-0.3,0.3-0.4,0.4
	c-0.2,0.1-0.3,0.2-0.5,0.3c-0.2,0.1-0.5,0.1-0.7,0.1c-0.3,0-0.5,0-0.8-0.2c-0.2-0.1-0.4-0.3-0.5-0.5c-0.1-0.2-0.2-0.5-0.2-0.8
	c0-0.4,0.2-0.9,0.6-1.1c0.5-0.3,1.1-0.4,1.7-0.4H23v-0.3c0-0.3-0.1-0.7-0.3-0.9c-0.2-0.2-0.5-0.3-0.8-0.2c-0.2,0-0.5,0-0.7,0.1
	c-0.2,0.1-0.4,0.2-0.6,0.2l-0.2-0.5c0.2-0.1,0.5-0.2,0.8-0.3C21.4,45.2,21.7,45.2,22,45.2z M23,47.7h-0.7c-0.4,0-0.9,0.1-1.3,0.3
	c-0.2,0.2-0.4,0.4-0.4,0.7c0,0.2,0.1,0.5,0.2,0.6c0.2,0.1,0.4,0.2,0.7,0.2c0.4,0,0.8-0.1,1-0.4c0.3-0.3,0.4-0.7,0.4-1.1V47.7z"/>
<path class="st2" d="M27.5,45.2c0.8-0.1,1.6,0.4,1.7,1.3c0,0.2,0,0.3,0,0.5v3.1h-0.7V47c0-0.3-0.1-0.6-0.3-0.9
	c-0.2-0.2-0.5-0.3-0.8-0.3c-0.4,0-0.8,0.1-1.1,0.5c-0.2,0.4-0.4,0.8-0.3,1.3v2.5h-0.7v-4.8h0.6l0.1,0.7l0,0c0.1-0.2,0.2-0.3,0.4-0.4
	c0.2-0.1,0.3-0.2,0.5-0.3C27,45.2,27.2,45.2,27.5,45.2z"/>
<path class="st2" d="M31.4,43.2v3.5c0,0.1,0,0.3,0,0.4s0,0.3,0,0.5l0,0l0.3-0.3L32,47l1.6-1.7h0.9l-1.9,2l2.1,2.8h-0.9L32,47.8
	l-0.6,0.5v1.7h-0.7v-6.8H31.4z"/>
<path class="st2" d="M41.9,47.7c0,0.4,0,0.7-0.2,1c-0.1,0.3-0.2,0.6-0.5,0.8c-0.2,0.2-0.4,0.4-0.7,0.5c-0.3,0.1-0.6,0.2-0.9,0.2
	c-0.3,0-0.6-0.1-0.9-0.2c-0.3-0.1-0.5-0.3-0.7-0.5c-0.2-0.2-0.4-0.5-0.5-0.8c-0.1-0.3-0.2-0.7-0.2-1c0-0.5,0.1-0.9,0.3-1.3
	c0.2-0.4,0.4-0.7,0.8-0.8c0.4-0.2,0.8-0.3,1.2-0.3c0.4,0,0.8,0.1,1.2,0.3c0.3,0.2,0.6,0.5,0.8,0.8C41.8,46.7,41.9,47.2,41.9,47.7z
	 M38.3,47.7c0,0.3,0,0.7,0.2,1c0.1,0.3,0.3,0.5,0.5,0.7c0.5,0.3,1.1,0.3,1.6,0c0.2-0.2,0.4-0.4,0.5-0.7c0.1-0.3,0.2-0.7,0.2-1
	c0-0.3-0.1-0.7-0.2-1c-0.1-0.3-0.3-0.5-0.5-0.7c-0.2-0.2-0.5-0.2-0.8-0.2c-0.4,0-0.8,0.2-1.1,0.5C38.4,46.7,38.2,47.2,38.3,47.7z"/>
<path class="st2" d="M45.3,45.8h-1.2v4.2h-0.7v-4.2h-0.8v-0.3l0.8-0.2v-0.3c0-0.3,0-0.7,0.2-1c0.1-0.2,0.3-0.4,0.5-0.6
	c0.3-0.1,0.5-0.2,0.8-0.2c0.2,0,0.3,0,0.5,0l0.4,0.1l-0.2,0.6l-0.3-0.1c-0.1,0-0.2,0-0.4,0c-0.2,0-0.5,0.1-0.6,0.3
	c-0.2,0.3-0.2,0.5-0.2,0.8v0.4h1.2L45.3,45.8z"/>
<path class="st2" d="M52.7,50.1l-0.8-2h-2.6l-0.8,2h-0.8l2.5-6.5H51l2.5,6.5H52.7z M51.7,47.4l-0.8-2c0,0,0-0.1-0.1-0.3l-0.1-0.4
	c0-0.1-0.1-0.2-0.1-0.3l-0.1,0.4c0,0.1-0.1,0.2-0.1,0.3l-0.1,0.2l-0.8,2L51.7,47.4z"/>
<path class="st2" d="M59.5,45.2c0.4,0,0.9,0.1,1.2,0.4c0.3,0.4,0.4,0.9,0.4,1.3v3.2h-0.7V47c0-0.3-0.1-0.6-0.2-0.9
	c-0.2-0.2-0.5-0.3-0.8-0.3c-0.4,0-0.8,0.1-1,0.4C58.1,46.6,58,47,58,47.4v2.7h-0.7V47c0-0.2,0-0.4-0.1-0.7C57.1,46.2,57,46,56.8,46
	c-0.2-0.1-0.4-0.1-0.6-0.1c-0.3,0-0.5,0.1-0.8,0.2c-0.2,0.1-0.4,0.3-0.4,0.6c-0.1,0.3-0.1,0.7-0.1,1v2.5h-0.7v-4.9h0.6l0.1,0.7l0,0
	c0.2-0.3,0.5-0.6,0.8-0.7c0.2-0.1,0.4-0.1,0.6-0.1c0.3,0,0.6,0.1,0.9,0.2c0.2,0.1,0.4,0.4,0.5,0.6l0,0c0.2-0.3,0.4-0.5,0.7-0.6
	C58.8,45.2,59.1,45.2,59.5,45.2z"/>
<path class="st2" d="M64.4,45.2c0.4,0,0.7,0.1,1,0.3c0.3,0.2,0.5,0.4,0.7,0.8c0.2,0.4,0.2,0.8,0.2,1.2v0.5h-3.3
	c0,0.5,0.1,0.9,0.4,1.3c0.3,0.3,0.7,0.5,1.1,0.5c0.3,0,0.5,0,0.8-0.1c0.2-0.1,0.5-0.1,0.7-0.2v0.6c-0.2,0.1-0.5,0.2-0.7,0.2
	c-0.3,0.1-0.6,0.1-0.8,0.1c-0.4,0-0.8-0.1-1.2-0.3c-0.3-0.2-0.6-0.5-0.8-0.8c-0.2-0.4-0.3-0.9-0.3-1.3c0-0.5,0.1-0.9,0.3-1.3
	c0.2-0.4,0.4-0.7,0.7-0.9C63.6,45.3,64,45.2,64.4,45.2z M64.4,45.8c-0.4,0-0.7,0.1-0.9,0.4c-0.3,0.3-0.4,0.7-0.4,1.1h2.6
	c0-0.3,0-0.5-0.1-0.8c-0.1-0.2-0.2-0.4-0.4-0.5C64.9,45.8,64.7,45.8,64.4,45.8L64.4,45.8z"/>
<path class="st2" d="M69.8,45.2h0.3h0.3l-0.1,0.7H70h-0.3c-0.2,0-0.4,0-0.6,0.1c-0.2,0.1-0.3,0.2-0.4,0.3c-0.1,0.2-0.2,0.3-0.3,0.5
	c-0.1,0.2-0.1,0.4-0.1,0.7v2.6h-0.7v-4.8h0.6l0.1,0.9l0,0c0.1-0.2,0.2-0.3,0.4-0.5c0.1-0.1,0.3-0.3,0.5-0.3
	C69.4,45.2,69.6,45.2,69.8,45.2z"/>
<path class="st2" d="M71.7,43.5c0.1,0,0.2,0,0.3,0.1c0.2,0.2,0.2,0.5,0,0.7c-0.1,0.1-0.2,0.1-0.3,0.1c-0.1,0-0.2,0-0.3-0.1
	c-0.2-0.2-0.2-0.5,0-0.7C71.4,43.5,71.6,43.4,71.7,43.5z M72,45.3v4.8h-0.7v-4.8H72z"/>
<path class="st2" d="M75.5,50.2c-0.4,0-0.8-0.1-1.1-0.3c-0.3-0.2-0.6-0.5-0.8-0.8c-0.2-0.4-0.3-0.9-0.3-1.4c0-0.5,0.1-1,0.3-1.4
	c0.2-0.4,0.5-0.6,0.8-0.8c0.4-0.2,0.8-0.3,1.2-0.3c0.2,0,0.5,0,0.7,0.1c0.2,0,0.4,0.1,0.6,0.2L76.6,46c-0.2-0.1-0.3-0.1-0.5-0.2
	c-0.2,0-0.4-0.1-0.5-0.1c-0.3,0-0.6,0.1-0.8,0.2c-0.2,0.2-0.4,0.4-0.5,0.6c-0.1,0.3-0.2,0.7-0.2,1c0,0.3,0.1,0.7,0.2,1
	c0.1,0.3,0.3,0.5,0.5,0.6c0.2,0.2,0.5,0.2,0.8,0.2c0.2,0,0.5,0,0.7-0.1c0.2-0.1,0.4-0.1,0.6-0.2v0.7c-0.2,0.1-0.4,0.1-0.5,0.2
	C76,50.1,75.7,50.1,75.5,50.2z"/>
<path class="st2" d="M79.7,45.2c0.5,0,0.9,0.1,1.3,0.4c0.3,0.3,0.5,0.8,0.4,1.2v3.3h-0.5l-0.1-0.7l0,0c-0.1,0.2-0.3,0.3-0.4,0.4
	c-0.2,0.1-0.3,0.2-0.5,0.3c-0.2,0.1-0.5,0.1-0.7,0.1c-0.3,0-0.5,0-0.8-0.2c-0.2-0.1-0.4-0.3-0.5-0.5c-0.1-0.2-0.2-0.5-0.2-0.8
	c0-0.4,0.2-0.9,0.6-1.1c0.5-0.3,1.1-0.4,1.7-0.4h0.8v-0.3c0-0.3-0.1-0.7-0.3-0.9c-0.2-0.2-0.5-0.3-0.8-0.2c-0.2,0-0.5,0-0.7,0.1
	c-0.2,0.1-0.4,0.1-0.7,0.2L78,45.6c0.2-0.1,0.5-0.2,0.8-0.3C79.1,45.2,79.4,45.2,79.7,45.2z M80.7,47.7H80c-0.4,0-0.9,0.1-1.3,0.3
	c-0.2,0.2-0.4,0.4-0.4,0.7c0,0.2,0.1,0.5,0.2,0.6c0.2,0.1,0.4,0.2,0.7,0.2c0.4,0,0.8-0.1,1.1-0.4c0.3-0.3,0.4-0.7,0.4-1.1V47.7z"/>
<path class="st2" d="M83.7,49L83.7,49c0.1,0.3-0.1,0.5-0.1,0.8s-0.2,0.5-0.3,0.7S83.1,51,83,51.2h-0.6c0.1-0.2,0.1-0.5,0.2-0.7
	s0.1-0.5,0.2-0.8s0.1-0.5,0.1-0.7L83.7,49z"/>
<path class="st2" d="M92.7,50.1h-0.9l-3.5-5.4l0,0c0,0.1,0,0.3,0,0.5s0,0.4,0,0.6s0,0.4,0,0.6v3.7h-0.7v-6.4h0.9L92,49l0,0
	c0-0.1,0-0.2,0-0.4s0-0.4,0-0.6s0-0.4,0-0.6v-3.7h0.7L92.7,50.1z"/>
<path class="st2" d="M94.2,49.6c0-0.2,0-0.3,0.2-0.4c0.1-0.1,0.2-0.1,0.4-0.1c0.1,0,0.3,0,0.4,0.1c0.1,0.1,0.2,0.3,0.2,0.4
	c0,0.3-0.2,0.5-0.5,0.6c0,0,0,0-0.1,0c-0.1,0-0.3,0-0.4-0.1C94.3,49.9,94.2,49.8,94.2,49.6z"/>
<path class="st2" d="M100.8,50.1L100,48h-2.5l-0.8,2h-0.8l2.5-6.5h0.7l2.5,6.5L100.8,50.1z M99.8,47.4l-0.8-2L99,45.1l-0.1-0.4
	c0-0.1-0.1-0.2-0.1-0.3l-0.1,0.4c0,0.1-0.1,0.2-0.1,0.3s-0.1,0.2-0.1,0.2l-0.8,2L99.8,47.4z"/>
<path class="st2" d="M102.3,49.6c0-0.2,0-0.3,0.2-0.4c0.1-0.1,0.2-0.1,0.4-0.1c0.1,0,0.3,0,0.4,0.1c0.1,0.1,0.2,0.3,0.2,0.4
	c0,0.2,0,0.3-0.2,0.4c-0.1,0.1-0.2,0.1-0.4,0.1c-0.1,0-0.3,0-0.4-0.1C102.3,49.9,102.3,49.8,102.3,49.6z"/>
<path class="st2" d="M110,50.1l-2.2-5.7l0,0c0,0.1,0,0.3,0,0.4s0,0.4,0,0.6s0,0.4,0,0.6v4.1h-0.7v-6.4h1.1l2,5.3l0,0l2.1-5.3h1.1
	v6.4h-0.7V46c0-0.2,0-0.4,0-0.6s0-0.4,0-0.5s0-0.3,0-0.5l0,0l-2.2,5.7L110,50.1z"/>
<path class="st2" d="M115.6,43.5c0.1,0,0.2,0,0.3,0.1c0.2,0.2,0.2,0.5,0,0.7c-0.1,0.1-0.2,0.1-0.3,0.1c-0.1,0-0.2,0-0.3-0.1
	c-0.2-0.2-0.2-0.5,0-0.7C115.3,43.5,115.4,43.4,115.6,43.5z M115.9,45.3v4.8h-0.7v-4.8L115.9,45.3z"/>
<path class="st2" d="M119.3,45.2c0.4,0,0.7,0.1,1,0.3c0.3,0.2,0.5,0.4,0.7,0.8c0.2,0.4,0.2,0.8,0.2,1.2v0.5h-3.3
	c0,0.5,0.1,0.9,0.4,1.3c0.3,0.3,0.7,0.5,1.2,0.5c0.3,0,0.5,0,0.8-0.1c0.2-0.1,0.5-0.1,0.7-0.2v0.6c-0.2,0.1-0.5,0.2-0.7,0.2
	c-0.3,0.1-0.6,0.1-0.8,0.1c-0.4,0-0.8-0.1-1.2-0.3c-0.3-0.2-0.6-0.5-0.8-0.8c-0.2-0.4-0.3-0.9-0.3-1.3c0-0.5,0.1-0.9,0.3-1.3
	c0.2-0.4,0.4-0.7,0.7-0.9C118.5,45.3,118.9,45.2,119.3,45.2z M119.3,45.8c-0.4,0-0.7,0.1-0.9,0.4c-0.3,0.3-0.4,0.7-0.4,1.1h2.5
	c0-0.3,0-0.5-0.1-0.8c-0.1-0.2-0.2-0.3-0.4-0.5C119.8,45.9,119.6,45.8,119.3,45.8L119.3,45.8z"/>
<path class="st2" d="M127.7,45.2c0.4,0,0.9,0.1,1.2,0.4c0.3,0.4,0.4,0.9,0.4,1.3v3.2h-0.7V47c0-0.3-0.1-0.6-0.2-0.9
	c-0.2-0.2-0.5-0.3-0.8-0.3c-0.4,0-0.7,0.1-1,0.4c-0.2,0.4-0.3,0.8-0.3,1.2v2.7h-0.7V47c0-0.2,0-0.4-0.1-0.7
	c-0.1-0.2-0.2-0.3-0.3-0.4c-0.2-0.1-0.4-0.1-0.6-0.1c-0.3,0-0.5,0.1-0.8,0.2c-0.2,0.1-0.4,0.3-0.4,0.6c-0.1,0.3-0.1,0.7-0.1,1v2.5
	h-0.7v-4.9h0.6l0.1,0.7l0,0c0.2-0.3,0.5-0.6,0.8-0.7c0.2-0.1,0.4-0.1,0.6-0.1c0.3,0,0.6,0.1,0.9,0.2c0.2,0.1,0.4,0.4,0.5,0.6l0,0
	c0.2-0.3,0.4-0.5,0.7-0.6C127.1,45.2,127.4,45.2,127.7,45.2z"/>
<path class="st2" d="M131.6,43.2v1.7c0,0.2,0,0.4,0,0.6s0,0.3,0,0.4l0,0c0.1-0.2,0.3-0.4,0.6-0.5c0.3-0.2,0.7-0.2,1-0.2
	c0.6,0,1.1,0.2,1.4,0.6c0.4,0.5,0.6,1.2,0.5,1.9c0,0.5-0.1,0.9-0.2,1.4c-0.1,0.3-0.4,0.6-0.7,0.8c-0.3,0.2-0.7,0.3-1.1,0.3
	c-0.3,0-0.7-0.1-0.9-0.2c-0.2-0.1-0.4-0.3-0.6-0.5l0,0l-0.1,0.6h-0.5v-6.8H131.6z M133,45.8c-0.3,0-0.6,0.1-0.8,0.2
	c-0.2,0.1-0.4,0.4-0.4,0.6c-0.1,0.3-0.1,0.7-0.1,1l0,0c0,0.5,0.1,1,0.3,1.4c0.3,0.3,0.7,0.5,1.1,0.5c0.4,0,0.8-0.2,1-0.5
	c0.3-0.4,0.4-0.9,0.3-1.4c0-0.5-0.1-1-0.3-1.4C133.8,45.9,133.4,45.7,133,45.8z"/>
<path class="st2" d="M138.5,45.2h0.3h0.3l-0.1,0.7h-0.3h-0.3c-0.2,0-0.4,0-0.6,0.1c-0.2,0.1-0.3,0.2-0.4,0.3
	c-0.1,0.2-0.2,0.3-0.3,0.5c-0.1,0.2-0.1,0.4-0.1,0.7v2.6h-0.7v-4.8h0.6l0.1,0.9l0,0c0.1-0.2,0.2-0.3,0.4-0.5
	c0.1-0.1,0.3-0.3,0.5-0.3C138.1,45.2,138.3,45.2,138.5,45.2z"/>
<path class="st2" d="M144.2,47.7c0,0.4,0,0.7-0.2,1c-0.1,0.3-0.2,0.6-0.4,0.8c-0.2,0.2-0.4,0.4-0.7,0.5c-0.3,0.1-0.6,0.2-0.9,0.2
	c-0.3,0-0.6-0.1-0.9-0.2c-0.3-0.1-0.5-0.3-0.7-0.5c-0.2-0.2-0.4-0.5-0.4-0.8c-0.1-0.3-0.2-0.7-0.2-1c0-0.5,0.1-0.9,0.3-1.3
	c0.2-0.4,0.4-0.7,0.8-0.8c0.4-0.2,0.8-0.3,1.2-0.3c0.4,0,0.8,0.1,1.1,0.3c0.3,0.2,0.6,0.5,0.8,0.8C144.1,46.7,144.2,47.2,144.2,47.7
	z M140.5,47.7c0,0.3,0,0.7,0.2,1c0.1,0.3,0.2,0.5,0.5,0.7c0.2,0.2,0.5,0.2,0.8,0.2c0.3,0,0.6-0.1,0.8-0.2c0.2-0.2,0.4-0.4,0.5-0.7
	c0.1-0.3,0.2-0.7,0.1-1c0-0.3,0-0.7-0.1-1c-0.1-0.3-0.3-0.5-0.5-0.7c-0.2-0.2-0.5-0.2-0.8-0.2c-0.4,0-0.8,0.2-1.1,0.5
	C140.6,46.7,140.5,47.2,140.5,47.7z"/>
<path class="st2" d="M149.5,50.2c-0.6,0-1.1-0.2-1.4-0.6c-0.7-1.1-0.7-2.6,0-3.7c0.4-0.4,0.9-0.6,1.4-0.6c0.2,0,0.5,0,0.7,0.1
	c0.2,0.1,0.3,0.2,0.5,0.3c0.1,0.1,0.3,0.2,0.4,0.4h0.1c0-0.1,0-0.2,0-0.4s0-0.3,0-0.4v-1.9h0.7v6.8h-0.6l-0.1-0.7l0,0
	c-0.1,0.1-0.2,0.3-0.3,0.4c-0.2,0.1-0.3,0.2-0.5,0.3C150,50.1,149.7,50.2,149.5,50.2z M149.6,49.5c0.4,0,0.8-0.1,1.1-0.4
	c0.2-0.4,0.4-0.8,0.3-1.3v-0.1c0-0.5-0.1-1-0.3-1.4c-0.3-0.4-0.7-0.5-1.1-0.5c-0.4,0-0.8,0.2-1,0.5c-0.2,0.4-0.4,0.9-0.3,1.4
	c0,0.5,0.1,1,0.3,1.4C148.8,49.4,149.2,49.6,149.6,49.5z"/>
<path class="st2" d="M155.1,45.2c0.4,0,0.7,0.1,1.1,0.3c0.3,0.2,0.5,0.4,0.7,0.8c0.2,0.4,0.2,0.8,0.2,1.2v0.5h-3.3
	c0,0.5,0.1,0.9,0.4,1.3c0.3,0.3,0.7,0.5,1.1,0.5c0.3,0,0.5,0,0.8-0.1c0.2-0.1,0.5-0.1,0.7-0.2v0.6c-0.2,0.1-0.5,0.2-0.7,0.2
	c-0.3,0.1-0.6,0.1-0.9,0.1c-0.4,0-0.8-0.1-1.2-0.3c-0.3-0.2-0.6-0.5-0.8-0.8c-0.2-0.4-0.3-0.9-0.3-1.3c0-0.5,0.1-0.9,0.3-1.3
	c0.2-0.4,0.4-0.7,0.7-0.9C154.3,45.3,154.7,45.2,155.1,45.2z M155.1,45.8c-0.4,0-0.7,0.1-0.9,0.4c-0.3,0.3-0.4,0.7-0.4,1.1h2.6
	c0-0.3,0-0.5-0.1-0.8c-0.1-0.2-0.2-0.4-0.4-0.5C155.6,45.8,155.4,45.8,155.1,45.8L155.1,45.8z"/>
<path class="st2" d="M161.5,50.1h-0.8v-6.4h3.6v0.7h-2.8v2.3h2.7v0.7h-2.7V50.1z"/>
<path class="st2" d="M170.5,46.8c0,0.6-0.1,1.2-0.4,1.8c-0.3,0.5-0.7,0.9-1.1,1.1c-0.6,0.3-1.2,0.4-1.8,0.4h-1.7v-6.4h1.9
	c0.6,0,1.2,0.1,1.7,0.4c0.5,0.2,0.8,0.6,1.1,1C170.4,45.6,170.6,46.2,170.5,46.8z M169.8,46.8c0-0.5-0.1-1-0.3-1.4
	c-0.2-0.4-0.5-0.7-0.9-0.8c-0.4-0.2-0.9-0.3-1.4-0.3h-1.1v5.2h0.9c0.7,0.1,1.4-0.2,2-0.7C169.6,48.2,169.8,47.5,169.8,46.8
	L169.8,46.8z"/>
<path class="st2" d="M172,50.1v-6.4h0.8v6.4H172z"/>
<path class="st2" d="M177.2,44.2c-0.3,0-0.7,0.1-1,0.2c-0.3,0.1-0.5,0.3-0.7,0.5c-0.2,0.2-0.4,0.5-0.4,0.8c-0.1,0.4-0.2,0.7-0.2,1.1
	c0,0.5,0.1,1,0.2,1.4c0.2,0.4,0.4,0.7,0.8,0.9c0.4,0.2,0.8,0.3,1.3,0.3c0.3,0,0.5,0,0.8-0.1c0.2,0,0.5-0.1,0.7-0.2v0.7
	c-0.2,0.1-0.5,0.2-0.7,0.2c-0.3,0-0.6,0.1-0.9,0.1c-0.6,0-1.1-0.1-1.6-0.4c-0.4-0.3-0.8-0.7-1-1.2c-0.2-0.6-0.3-1.1-0.3-1.8
	c0-0.5,0.1-0.9,0.2-1.3c0.1-0.4,0.3-0.7,0.6-1c0.3-0.3,0.6-0.5,1-0.7c0.4-0.2,0.9-0.2,1.3-0.2c0.3,0,0.6,0,0.9,0.1
	c0.3,0.1,0.6,0.2,0.8,0.3l-0.3,0.6c-0.2-0.1-0.4-0.2-0.7-0.2C177.7,44.2,177.5,44.2,177.2,44.2z"/>
<path class="st2" d="M179.9,49.6c0-0.2,0-0.3,0.1-0.4c0.1-0.1,0.2-0.1,0.4-0.1c0.1,0,0.3,0,0.4,0.1c0.1,0.1,0.2,0.3,0.1,0.4
	c0,0.2,0,0.3-0.1,0.4c-0.1,0.1-0.2,0.1-0.4,0.1c-0.1,0-0.3,0-0.4-0.1C180,49.9,179.9,49.8,179.9,49.6z"/>
<path class="st1" d="M184.9,50.1v-6.4h0.7v6.4H184.9z"/>
<path class="st1" d="M188.6,52.2c-0.5,0-1-0.1-1.5-0.3c-0.3-0.2-0.5-0.6-0.5-1c0-0.3,0.1-0.6,0.3-0.8c0.2-0.2,0.5-0.4,0.8-0.4
	c-0.1-0.1-0.2-0.2-0.3-0.3c-0.1-0.1-0.1-0.3-0.1-0.4c0-0.2,0.1-0.3,0.1-0.5c0.1-0.2,0.3-0.3,0.4-0.4c-0.3-0.1-0.5-0.3-0.6-0.5
	c-0.2-0.3-0.2-0.5-0.2-0.8c0-0.3,0.1-0.6,0.2-0.9c0.1-0.2,0.4-0.4,0.6-0.6c0.3-0.1,0.7-0.2,1-0.2h0.3h0.2h0.2h1.7v0.5l-0.9,0.1
	c0.1,0.1,0.2,0.3,0.2,0.4c0.1,0.2,0.1,0.4,0.1,0.5c0,0.4-0.2,0.9-0.5,1.1c-0.4,0.3-0.9,0.5-1.3,0.4c-0.1,0-0.3,0-0.4,0
	c-0.1,0.1-0.2,0.2-0.3,0.3c-0.1,0.1-0.1,0.2-0.1,0.3c0,0.1,0,0.2,0.1,0.2c0.1,0.1,0.2,0.1,0.2,0.1c0.1,0,0.3,0,0.4,0h0.9
	c0.4,0,0.9,0.1,1.2,0.3c0.3,0.2,0.4,0.6,0.4,1c0,0.5-0.2,1-0.6,1.2C189.9,52.1,189.3,52.3,188.6,52.2z M188.6,51.7
	c0.3,0,0.7,0,1-0.1c0.2-0.1,0.4-0.2,0.6-0.3c0.1-0.2,0.2-0.3,0.2-0.5c0-0.2,0-0.3-0.1-0.4c-0.1-0.1-0.2-0.2-0.4-0.2
	c-0.2,0-0.4-0.1-0.6,0h-0.8c-0.2,0-0.4,0-0.6,0.1c-0.2,0.1-0.3,0.2-0.4,0.3c-0.1,0.1-0.1,0.3-0.1,0.5c0,0.2,0.1,0.5,0.3,0.6
	C188,51.6,188.3,51.7,188.6,51.7L188.6,51.7z M188.8,47.8c0.3,0,0.6-0.1,0.8-0.3c0.2-0.2,0.3-0.5,0.3-0.8c0-0.3-0.1-0.6-0.3-0.8
	c-0.2-0.2-0.5-0.3-0.8-0.3c-0.3,0-0.6,0.1-0.8,0.3c-0.2,0.2-0.3,0.5-0.3,0.8c0,0.3,0.1,0.6,0.3,0.8
	C188.2,47.8,188.5,47.8,188.8,47.8L188.8,47.8z"/>
<path class="st1" d="M196.1,45.3v4.8h-0.6l-0.1-0.7l0,0c-0.1,0.2-0.2,0.3-0.4,0.4c-0.2,0.1-0.3,0.2-0.5,0.2
	c-0.2,0.1-0.4,0.1-0.6,0.1c-0.3,0-0.7,0-1-0.2c-0.3-0.1-0.5-0.3-0.6-0.6c-0.1-0.3-0.2-0.7-0.2-1v-3.1h0.7v3.1c0,0.3,0.1,0.6,0.3,0.9
	c0.2,0.2,0.5,0.3,0.8,0.3c0.3,0,0.6-0.1,0.9-0.2c0.2-0.1,0.4-0.3,0.5-0.6c0.1-0.3,0.1-0.7,0.1-1v-2.5H196.1z"/>
<path class="st1" d="M199.5,45.2c0.5,0,0.9,0.1,1.3,0.4c0.3,0.3,0.4,0.8,0.4,1.2v3.3h-0.5l-0.1-0.7l0,0c-0.1,0.2-0.3,0.3-0.4,0.4
	c-0.1,0.1-0.3,0.2-0.5,0.3c-0.2,0.1-0.5,0.1-0.7,0.1c-0.3,0-0.6,0-0.8-0.2c-0.2-0.1-0.4-0.3-0.5-0.5c-0.1-0.2-0.2-0.5-0.2-0.8
	c0-0.4,0.2-0.9,0.6-1.1c0.5-0.3,1.1-0.4,1.7-0.4h0.8v-0.3c0-0.3-0.1-0.6-0.3-0.9c-0.2-0.2-0.5-0.3-0.8-0.2c-0.2,0-0.5,0-0.7,0.1
	c-0.2,0.1-0.4,0.1-0.6,0.2l-0.2-0.5c0.2-0.1,0.5-0.2,0.8-0.3C198.8,45.2,199.1,45.2,199.5,45.2z M200.5,47.7h-0.7
	c-0.4,0-0.9,0.1-1.3,0.3c-0.2,0.2-0.4,0.4-0.4,0.7c0,0.2,0.1,0.5,0.2,0.6c0.2,0.1,0.4,0.2,0.7,0.2c0.4,0,0.8-0.1,1.1-0.4
	c0.3-0.3,0.4-0.7,0.4-1.1L200.5,47.7z"/>
<path class="st1" d="M203.4,50.1h-0.7v-6.8h0.7V50.1z"/>
<path class="st1" d="M206.6,50.2c-0.6,0-1.1-0.2-1.4-0.6c-0.4-0.5-0.6-1.2-0.5-1.9c0-0.7,0.1-1.3,0.6-1.9c0.4-0.4,0.9-0.7,1.4-0.6
	c0.2,0,0.4,0,0.7,0.1c0.2,0.1,0.3,0.2,0.5,0.3c0.1,0.1,0.2,0.2,0.3,0.4h0.1c0-0.1,0-0.2,0-0.4c0-0.2,0-0.3,0-0.4v-1.9h0.7v6.8h-0.6
	l-0.1-0.7l0,0c-0.1,0.1-0.2,0.3-0.3,0.4c-0.2,0.1-0.3,0.2-0.5,0.3C207.2,50.1,206.9,50.2,206.6,50.2z M206.8,49.5
	c0.4,0,0.8-0.1,1.1-0.4c0.2-0.4,0.4-0.8,0.3-1.3v-0.1c0-0.5-0.1-1-0.3-1.4c-0.3-0.4-0.7-0.5-1.1-0.5c-0.4,0-0.8,0.2-1,0.5
	c-0.2,0.4-0.4,0.9-0.3,1.4c0,0.5,0.1,1,0.3,1.4C206,49.4,206.4,49.6,206.8,49.5z"/>
<path class="st1" d="M212.2,45.2c0.5,0,0.9,0.1,1.3,0.4c0.3,0.3,0.5,0.8,0.4,1.2v3.3h-0.5l-0.1-0.7l0,0c-0.1,0.2-0.3,0.3-0.4,0.4
	c-0.1,0.1-0.3,0.2-0.5,0.3c-0.2,0.1-0.5,0.1-0.7,0.1c-0.3,0-0.5,0-0.8-0.2c-0.2-0.1-0.4-0.3-0.5-0.5c-0.1-0.2-0.2-0.5-0.2-0.8
	c0-0.4,0.2-0.9,0.6-1.1c0.5-0.3,1.1-0.4,1.7-0.4h0.8v-0.3c0.1-0.3,0-0.7-0.3-0.9c-0.2-0.2-0.5-0.3-0.8-0.2c-0.2,0-0.5,0-0.7,0.1
	c-0.2,0.1-0.4,0.1-0.6,0.2l-0.2-0.5c0.2-0.1,0.5-0.2,0.8-0.3C211.7,45.2,212,45.2,212.2,45.2z M213.2,47.7h-0.7
	c-0.4,0-0.9,0.1-1.3,0.3c-0.2,0.2-0.4,0.4-0.4,0.7c0,0.2,0.1,0.5,0.2,0.6c0.2,0.1,0.4,0.2,0.7,0.2c0.4,0,0.8-0.1,1.1-0.4
	c0.3-0.3,0.4-0.7,0.4-1.1L213.2,47.7z"/>
<path class="st1" d="M217.1,50.2c-0.6,0-1.1-0.2-1.4-0.6c-0.7-1.1-0.7-2.6,0-3.7c0.4-0.4,0.9-0.6,1.4-0.6c0.2,0,0.5,0,0.7,0.1
	c0.2,0.1,0.3,0.2,0.5,0.3c0.1,0.1,0.3,0.2,0.4,0.4h0.1c0-0.1,0-0.2,0-0.4s0-0.3,0-0.4v-1.9h0.7v6.8h-0.6l-0.1-0.7l0,0
	c-0.1,0.1-0.2,0.3-0.4,0.4c-0.1,0.1-0.3,0.2-0.5,0.3C217.7,50.1,217.4,50.2,217.1,50.2z M217.3,49.5c0.4,0,0.8-0.1,1.1-0.4
	c0.2-0.4,0.4-0.8,0.3-1.3v-0.1c0-0.5-0.1-1-0.3-1.4c-0.3-0.4-0.7-0.5-1.1-0.5c-0.4,0-0.8,0.2-1,0.5c-0.2,0.4-0.4,0.9-0.3,1.4
	c0,0.5,0.1,1,0.3,1.4C216.5,49.4,216.9,49.6,217.3,49.5z"/>
<path class="st1" d="M225,50.2c-0.5,0-1.1-0.2-1.4-0.6c-0.7-1.1-0.7-2.6,0-3.7c0.4-0.4,0.9-0.7,1.4-0.6c0.2,0,0.5,0,0.7,0.1
	c0.2,0.1,0.3,0.2,0.5,0.3c0.1,0.1,0.2,0.2,0.3,0.4h0.1c0-0.1,0-0.2,0-0.4c0-0.2,0-0.3,0-0.4v-1.9h0.7v6.8h-0.6l-0.1-0.7l0,0
	c-0.1,0.1-0.2,0.3-0.3,0.4c-0.2,0.1-0.3,0.2-0.5,0.3C225.5,50.1,225.3,50.2,225,50.2z M225.1,49.5c0.4,0,0.8-0.1,1.1-0.4
	c0.2-0.4,0.4-0.8,0.3-1.3v-0.1c0-0.5-0.1-1-0.3-1.4c-0.3-0.4-0.7-0.5-1.1-0.5c-0.4,0-0.8,0.2-1,0.5c-0.2,0.4-0.4,0.9-0.3,1.4
	c0,0.5,0.1,1,0.3,1.4C224.3,49.4,224.7,49.6,225.1,49.5L225.1,49.5z"/>
<path class="st1" d="M230.6,45.2c0.4,0,0.7,0.1,1.1,0.3c0.3,0.2,0.5,0.4,0.7,0.8c0.2,0.4,0.2,0.8,0.2,1.2v0.5h-3.3
	c0,0.5,0.1,0.9,0.4,1.3c0.3,0.3,0.7,0.5,1.1,0.5c0.3,0,0.5,0,0.8-0.1c0.2-0.1,0.5-0.1,0.7-0.2v0.6c-0.2,0.1-0.5,0.2-0.7,0.2
	c-0.3,0.1-0.6,0.1-0.8,0.1c-0.4,0-0.8-0.1-1.2-0.3c-0.3-0.2-0.6-0.5-0.8-0.8c-0.2-0.4-0.3-0.9-0.3-1.3c0-0.5,0.1-0.9,0.3-1.3
	c0.2-0.4,0.4-0.7,0.7-0.9C229.9,45.3,230.2,45.2,230.6,45.2z M230.6,45.8c-0.4,0-0.7,0.1-0.9,0.4c-0.3,0.3-0.4,0.7-0.4,1.1h2.6
	c0-0.3,0-0.5-0.1-0.8c-0.1-0.2-0.2-0.4-0.4-0.5C231.1,45.8,230.9,45.8,230.6,45.8L230.6,45.8z"/>
<path class="st1" d="M240.3,47.7c0,0.4,0,0.7-0.1,1c-0.1,0.3-0.2,0.6-0.4,0.8c-0.2,0.2-0.4,0.4-0.7,0.5c-0.3,0.1-0.6,0.2-0.9,0.2
	c-0.3,0-0.6-0.1-0.9-0.2c-0.3-0.1-0.5-0.3-0.7-0.5c-0.2-0.2-0.4-0.5-0.4-0.8c-0.1-0.3-0.2-0.7-0.2-1c0-0.5,0.1-0.9,0.3-1.3
	c0.2-0.4,0.4-0.6,0.8-0.8c0.4-0.2,0.8-0.3,1.2-0.3c0.4,0,0.8,0.1,1.2,0.3c0.3,0.2,0.6,0.5,0.8,0.8C240.3,46.7,240.3,47.2,240.3,47.7
	z M236.7,47.7c0,0.3,0,0.7,0.1,1c0.1,0.3,0.2,0.5,0.5,0.7c0.2,0.2,0.5,0.2,0.8,0.2c0.3,0,0.6-0.1,0.8-0.2c0.2-0.2,0.4-0.4,0.5-0.7
	c0.1-0.3,0.2-0.7,0.1-1c0-0.3,0-0.7-0.1-1c-0.1-0.3-0.2-0.5-0.4-0.7c-0.2-0.2-0.5-0.2-0.8-0.2c-0.4,0-0.8,0.2-1.1,0.5
	C236.8,46.7,236.7,47.2,236.7,47.7z"/>
<path class="st1" d="M243.9,45.2c0.6,0,1.1,0.2,1.4,0.6c0.4,0.5,0.6,1.2,0.5,1.9c0,0.5-0.1,0.9-0.2,1.4c-0.1,0.3-0.4,0.6-0.7,0.8
	c-0.3,0.2-0.6,0.3-1,0.3c-0.2,0-0.5,0-0.7-0.1c-0.2-0.1-0.3-0.2-0.5-0.3c-0.1-0.1-0.2-0.2-0.3-0.4h-0.1c0,0.1,0,0.2,0,0.4
	s0,0.3,0,0.4v2h-0.7v-7h0.6l0.1,0.7l0,0c0.1-0.2,0.2-0.3,0.3-0.4c0.1-0.1,0.3-0.2,0.5-0.3C243.3,45.2,243.6,45.2,243.9,45.2z
	 M243.7,45.8c-0.3,0-0.6,0.1-0.8,0.2c-0.2,0.1-0.4,0.3-0.4,0.6c-0.1,0.3-0.2,0.7-0.1,1v0.1c0,0.3,0,0.7,0.1,1
	c0.1,0.3,0.2,0.5,0.4,0.6c0.3,0.2,0.5,0.2,0.8,0.2c0.3,0,0.5-0.1,0.7-0.2c0.2-0.2,0.4-0.4,0.4-0.7c0.1-0.3,0.2-0.7,0.1-1
	c0-0.5-0.1-0.9-0.3-1.3C244.5,45.9,244.1,45.8,243.7,45.8L243.7,45.8z"/>
<path class="st1" d="M251.2,47.7c0,0.4,0,0.7-0.1,1c-0.1,0.3-0.2,0.6-0.4,0.8c-0.2,0.2-0.4,0.4-0.7,0.5c-0.3,0.1-0.6,0.2-0.9,0.2
	c-0.3,0-0.6-0.1-0.9-0.2c-0.3-0.1-0.5-0.3-0.7-0.5c-0.2-0.2-0.4-0.5-0.4-0.8c-0.1-0.3-0.2-0.7-0.2-1c0-0.5,0.1-0.9,0.3-1.3
	c0.2-0.4,0.4-0.7,0.8-0.8c0.4-0.2,0.8-0.3,1.2-0.3c0.4,0,0.8,0.1,1.2,0.3c0.3,0.2,0.6,0.5,0.8,0.8C251.2,46.7,251.3,47.2,251.2,47.7
	z M247.6,47.7c0,0.3,0,0.7,0.1,1c0.1,0.3,0.2,0.5,0.5,0.7c0.2,0.2,0.5,0.2,0.8,0.2c0.3,0,0.6-0.1,0.8-0.2c0.2-0.2,0.4-0.4,0.5-0.7
	c0.1-0.3,0.2-0.7,0.2-1c0-0.3-0.1-0.7-0.2-1c-0.1-0.3-0.3-0.5-0.5-0.7c-0.2-0.2-0.5-0.2-0.8-0.2c-0.4,0-0.8,0.2-1.1,0.5
	C247.7,46.7,247.6,47.2,247.6,47.7z"/>
<path class="st1" d="M254.7,45.2h0.3h0.3l-0.1,0.7h-0.3h-0.3c-0.2,0-0.4,0-0.6,0.1c-0.2,0.1-0.3,0.2-0.4,0.3
	c-0.1,0.2-0.2,0.3-0.3,0.5c-0.1,0.2-0.1,0.4-0.1,0.7v2.6h-0.7v-4.8h0.6l0.1,0.9l0,0c0.1-0.2,0.2-0.3,0.4-0.5
	c0.1-0.1,0.3-0.3,0.5-0.3C254.3,45.2,254.5,45.2,254.7,45.2z"/>
<path class="st1" d="M257.8,49.6h0.4c0.1,0,0.2,0,0.3-0.1V50c-0.1,0-0.2,0.1-0.4,0.1c-0.1,0-0.3,0-0.4,0c-0.2,0-0.5,0-0.7-0.1
	c-0.2-0.1-0.4-0.3-0.5-0.5c-0.1-0.3-0.2-0.6-0.2-0.9v-2.8h-0.7v-0.4l0.7-0.3l0.3-1h0.5v1.1h1.4v0.6H257v2.8c0,0.2,0.1,0.5,0.2,0.7
	C257.4,49.5,257.6,49.6,257.8,49.6z"/>
<path class="st1" d="M263.4,45.3v4.8h-0.6l-0.1-0.7l0,0c-0.2,0.3-0.5,0.6-0.9,0.7c-0.2,0.1-0.4,0.1-0.6,0.1c-0.3,0-0.7,0-1-0.2
	c-0.3-0.1-0.5-0.3-0.6-0.6c-0.1-0.3-0.2-0.7-0.2-1v-3.1h0.7v3.1c0,0.3,0.1,0.6,0.3,0.9c0.2,0.2,0.5,0.3,0.8,0.3
	c0.3,0,0.6-0.1,0.9-0.2c0.2-0.1,0.4-0.3,0.5-0.6c0.1-0.3,0.1-0.7,0.1-1v-2.5H263.4z"/>
<path class="st1" d="M267.2,45.2c0.5,0,0.9,0.1,1.3,0.4c0.3,0.4,0.5,0.9,0.4,1.3v3.1h-0.7V47c0-0.3-0.1-0.6-0.3-0.9
	c-0.2-0.2-0.5-0.3-0.8-0.3c-0.4,0-0.9,0.1-1.1,0.5c-0.2,0.4-0.3,0.9-0.3,1.3v2.5h-0.7v-4.8h0.6l0.1,0.7l0,0c0.1-0.2,0.2-0.3,0.4-0.4
	c0.2-0.1,0.3-0.2,0.5-0.3C266.8,45.2,267,45.2,267.2,45.2z"/>
<path class="st1" d="M270.8,43.5c0.1,0,0.2,0,0.3,0.1c0.2,0.2,0.2,0.5,0,0.7c-0.1,0.1-0.2,0.1-0.3,0.1c-0.1,0-0.2,0-0.3-0.1
	c-0.2-0.2-0.2-0.5,0-0.7C270.6,43.5,270.7,43.4,270.8,43.5z M271.2,45.3v4.8h-0.7v-4.8L271.2,45.3z"/>
<path class="st1" d="M274.4,50.2c-0.5,0-1.1-0.2-1.4-0.6c-0.7-1.1-0.7-2.6,0-3.7c0.4-0.4,0.9-0.7,1.5-0.6c0.2,0,0.4,0,0.7,0.1
	c0.2,0.1,0.3,0.2,0.5,0.3c0.1,0.1,0.2,0.2,0.3,0.4h0.1c0-0.1,0-0.2,0-0.4c0-0.2,0-0.3,0-0.4v-1.9h0.7v6.8h-0.6l-0.1-0.7l0,0
	c-0.1,0.1-0.2,0.3-0.3,0.4c-0.2,0.1-0.3,0.2-0.5,0.3C274.9,50.1,274.7,50.2,274.4,50.2z M274.5,49.5c0.4,0,0.8-0.1,1.1-0.4
	c0.2-0.4,0.4-0.8,0.3-1.3v-0.1c0-0.5-0.1-1-0.3-1.4c-0.3-0.4-0.7-0.5-1.1-0.5c-0.4,0-0.8,0.2-1,0.5c-0.2,0.4-0.4,0.9-0.3,1.4
	c0,0.5,0.1,1,0.3,1.4C273.8,49.4,274.1,49.6,274.5,49.5z"/>
<path class="st1" d="M280,45.2c0.5,0,0.9,0.1,1.3,0.4c0.3,0.3,0.4,0.8,0.4,1.2v3.3h-0.5l-0.1-0.7l0,0c-0.1,0.2-0.3,0.3-0.4,0.4
	c-0.1,0.1-0.3,0.2-0.5,0.3c-0.2,0.1-0.5,0.1-0.7,0.1c-0.3,0-0.5,0-0.8-0.2c-0.2-0.1-0.4-0.3-0.5-0.5c-0.1-0.2-0.2-0.5-0.2-0.8
	c0-0.4,0.2-0.9,0.6-1.1c0.5-0.3,1.1-0.4,1.7-0.4h0.8v-0.3c0-0.3-0.1-0.6-0.3-0.9c-0.2-0.2-0.5-0.3-0.8-0.2c-0.2,0-0.5,0-0.7,0.1
	c-0.2,0.1-0.4,0.1-0.6,0.2l-0.2-0.5c0.2-0.1,0.5-0.2,0.8-0.3C279.4,45.2,279.7,45.2,280,45.2z M281,47.7h-0.7
	c-0.4,0-0.9,0.1-1.3,0.3c-0.2,0.2-0.4,0.4-0.4,0.7c0,0.2,0.1,0.5,0.2,0.6c0.2,0.1,0.4,0.2,0.7,0.2c0.4,0,0.8-0.1,1-0.4
	c0.3-0.3,0.4-0.7,0.4-1.1V47.7z"/>
<path class="st1" d="M284.9,50.2c-0.6,0-1.1-0.2-1.5-0.6c-0.7-1.1-0.7-2.6,0-3.7c0.4-0.4,0.9-0.6,1.5-0.6c0.2,0,0.5,0,0.7,0.1
	c0.2,0.1,0.3,0.2,0.5,0.3c0.1,0.1,0.3,0.2,0.4,0.4h0c0-0.1,0-0.2,0-0.4s0-0.3,0-0.4v-1.9h0.7v6.8h-0.6l-0.1-0.7l0,0
	c-0.1,0.1-0.2,0.3-0.3,0.4c-0.2,0.1-0.3,0.2-0.5,0.3C285.4,50.1,285.2,50.2,284.9,50.2z M285,49.5c0.4,0,0.8-0.1,1.1-0.4
	c0.2-0.4,0.4-0.8,0.3-1.3v-0.1c0-0.5-0.1-1-0.3-1.4c-0.2-0.4-0.7-0.5-1.1-0.5c-0.4,0-0.8,0.2-1,0.5c-0.2,0.4-0.4,0.9-0.3,1.4
	c0,0.5,0.1,1,0.3,1.4C284.3,49.4,284.7,49.6,285,49.5z"/>
<path class="st1" d="M290.6,45.2c0.4,0,0.7,0.1,1,0.3c0.3,0.2,0.5,0.4,0.7,0.8c0.2,0.4,0.2,0.8,0.2,1.2v0.5h-3.3
	c0,0.5,0.1,0.9,0.4,1.3c0.3,0.3,0.7,0.5,1.1,0.5c0.3,0,0.5,0,0.8-0.1c0.2-0.1,0.5-0.1,0.7-0.2v0.6c-0.2,0.1-0.5,0.2-0.7,0.2
	c-0.3,0.1-0.6,0.1-0.9,0.1c-0.4,0-0.8-0.1-1.2-0.3c-0.3-0.2-0.6-0.5-0.8-0.8c-0.2-0.4-0.3-0.9-0.3-1.3c0-0.5,0.1-0.9,0.3-1.3
	c0.2-0.4,0.4-0.7,0.7-0.9C289.8,45.3,290.2,45.2,290.6,45.2z M290.6,45.8c-0.4,0-0.7,0.1-0.9,0.4c-0.3,0.3-0.4,0.7-0.4,1.1h2.5
	c0-0.3,0-0.5-0.1-0.8c-0.1-0.2-0.2-0.4-0.4-0.5C291.1,45.8,290.8,45.8,290.6,45.8L290.6,45.8z"/>
<path class="st1" d="M296.9,48.8c0,0.6-0.3,1.1-0.9,1.2c-0.3,0.1-0.7,0.2-1,0.2c-0.3,0-0.6,0-0.9-0.1c-0.2,0-0.4-0.1-0.6-0.2v-0.7
	c0.2,0.1,0.5,0.2,0.7,0.3c0.3,0.1,0.6,0.1,0.8,0.1c0.3,0,0.6,0,0.9-0.2c0.2-0.1,0.3-0.3,0.3-0.5c0-0.1,0-0.3-0.1-0.3
	c-0.1-0.1-0.2-0.2-0.4-0.3c-0.2-0.1-0.5-0.2-0.7-0.3c-0.3-0.1-0.6-0.2-0.8-0.3c-0.2-0.1-0.4-0.2-0.5-0.4c-0.3-0.5-0.2-1.2,0.3-1.6
	c0.4-0.2,0.8-0.3,1.3-0.3c0.3,0,0.5,0,0.8,0.1c0.2,0.1,0.5,0.1,0.7,0.2l-0.2,0.6c-0.2-0.1-0.4-0.2-0.6-0.2c-0.2-0.1-0.5-0.1-0.7-0.1
	c-0.3,0-0.5,0-0.8,0.2c-0.2,0.1-0.3,0.3-0.3,0.5c0,0.1,0,0.3,0.1,0.4c0.1,0.1,0.2,0.2,0.4,0.3c0.2,0.1,0.4,0.2,0.7,0.3
	c0.3,0.1,0.5,0.2,0.8,0.3c0.2,0.1,0.4,0.3,0.5,0.4C296.9,48.3,296.9,48.5,296.9,48.8z"/>
<path class="st1" d="M302.3,45.2c0.4,0,0.7,0.1,1,0.3c0.3,0.2,0.5,0.4,0.7,0.8c0.2,0.4,0.2,0.8,0.2,1.2v0.5h-3.3
	c0,0.5,0.1,0.9,0.4,1.3c0.3,0.3,0.7,0.5,1.1,0.5c0.3,0,0.5,0,0.8-0.1c0.2-0.1,0.5-0.1,0.7-0.2v0.6c-0.2,0.1-0.5,0.2-0.7,0.2
	c-0.3,0.1-0.6,0.1-0.9,0.1c-0.4,0-0.8-0.1-1.2-0.3c-0.3-0.2-0.6-0.5-0.8-0.8c-0.2-0.4-0.3-0.9-0.3-1.3c0-0.5,0.1-0.9,0.3-1.3
	c0.2-0.4,0.4-0.7,0.7-0.9C301.5,45.3,301.9,45.2,302.3,45.2z M302.3,45.8c-0.4,0-0.7,0.1-0.9,0.4c-0.3,0.3-0.4,0.7-0.4,1.1h2.5
	c0-0.3,0-0.5-0.1-0.8c-0.1-0.2-0.2-0.4-0.4-0.5C302.7,45.8,302.5,45.8,302.3,45.8L302.3,45.8z"/>
<path class="st1" d="M307.7,45.2c0.5,0,0.9,0.1,1.3,0.4c0.3,0.4,0.5,0.9,0.4,1.3v3.1h-0.7V47c0-0.3-0.1-0.6-0.3-0.9
	c-0.2-0.2-0.5-0.3-0.8-0.3c-0.4,0-0.9,0.1-1.1,0.5c-0.2,0.4-0.3,0.9-0.3,1.3v2.5h-0.7v-4.8h0.6l0.1,0.7l0,0c0.1-0.2,0.2-0.3,0.4-0.4
	c0.2-0.1,0.3-0.2,0.5-0.3C307.3,45.2,307.5,45.2,307.7,45.2z"/>
<path class="st1" d="M315.6,45.2c0.5,0,1.1,0.2,1.4,0.6c0.4,0.5,0.6,1.2,0.5,1.9c0,0.5-0.1,0.9-0.2,1.4c-0.3,0.7-1,1.2-1.8,1.1
	c-0.2,0-0.5,0-0.7-0.1c-0.2-0.1-0.3-0.2-0.5-0.3c-0.1-0.1-0.2-0.2-0.3-0.4h0c0,0.1,0,0.2,0,0.4s0,0.3,0,0.4v2h-0.7v-7h0.6L314,46
	l0,0c0.1-0.1,0.2-0.3,0.3-0.4c0.1-0.1,0.3-0.2,0.5-0.3C315.1,45.2,315.3,45.2,315.6,45.2z M315.4,45.8c-0.3,0-0.6,0.1-0.8,0.2
	c-0.2,0.1-0.4,0.3-0.4,0.6c-0.1,0.3-0.2,0.7-0.1,1v0.1c0,0.3,0,0.7,0.1,1c0.1,0.3,0.2,0.5,0.5,0.6c0.2,0.2,0.5,0.2,0.8,0.2
	c0.3,0,0.5-0.1,0.8-0.2c0.2-0.2,0.4-0.4,0.4-0.7c0.1-0.3,0.2-0.7,0.1-1c0-0.5-0.1-0.9-0.3-1.3C316.2,45.9,315.9,45.8,315.4,45.8
	L315.4,45.8z"/>
<path class="st1" d="M321,45.2h0.3h0.3l-0.1,0.7h-0.3H321c-0.2,0-0.4,0-0.5,0.1c-0.2,0.1-0.3,0.2-0.5,0.3c-0.1,0.2-0.2,0.3-0.3,0.5
	c-0.1,0.2-0.1,0.4-0.1,0.7v2.6h-0.7v-4.8h0.6l0.1,0.9l0,0c0.1-0.2,0.2-0.3,0.4-0.5c0.1-0.1,0.3-0.3,0.5-0.3
	C320.6,45.2,320.8,45.2,321,45.2z"/>
<path class="st1" d="M324.4,45.2c0.4,0,0.7,0.1,1.1,0.3c0.3,0.2,0.5,0.4,0.7,0.8c0.2,0.4,0.2,0.8,0.2,1.2v0.5H323
	c0,0.5,0.1,0.9,0.4,1.3c0.3,0.3,0.7,0.5,1.1,0.5c0.3,0,0.5,0,0.8-0.1c0.2-0.1,0.5-0.1,0.7-0.2v0.6c-0.2,0.1-0.5,0.2-0.7,0.2
	c-0.3,0.1-0.6,0.1-0.9,0.1c-0.4,0-0.8-0.1-1.2-0.3c-0.3-0.2-0.6-0.5-0.8-0.8c-0.2-0.4-0.3-0.9-0.3-1.3c0-0.5,0.1-0.9,0.3-1.3
	C322.8,45.6,323.6,45.2,324.4,45.2L324.4,45.2z M324.4,45.8c-0.4,0-0.7,0.1-0.9,0.4c-0.3,0.3-0.4,0.7-0.4,1.1h2.5
	c0-0.3,0-0.5-0.1-0.8c-0.1-0.2-0.2-0.4-0.4-0.5C324.8,45.9,324.6,45.8,324.4,45.8z M325.6,43.2L325.6,43.2c-0.1,0.2-0.2,0.3-0.2,0.4
	l-0.3,0.4l-0.4,0.4l-0.3,0.3h-0.5v-0.1c0.1-0.1,0.2-0.3,0.3-0.4l0.3-0.5l0.3-0.5H325.6z"/>
<path class="st1" d="M330.7,48.8c0,0.3-0.1,0.6-0.2,0.8c-0.2,0.2-0.4,0.4-0.7,0.5c-0.3,0.1-0.7,0.2-1,0.2c-0.3,0-0.6,0-0.9-0.1
	c-0.2,0-0.4-0.1-0.6-0.2v-0.7c0.2,0.1,0.5,0.2,0.7,0.3c0.3,0.1,0.5,0.1,0.8,0.1c0.3,0,0.6,0,0.9-0.2c0.2-0.1,0.3-0.3,0.3-0.5
	c0-0.1,0-0.2-0.1-0.3c-0.1-0.1-0.2-0.2-0.4-0.3c-0.2-0.1-0.5-0.2-0.7-0.3c-0.3-0.1-0.6-0.2-0.8-0.3c-0.2-0.1-0.4-0.2-0.5-0.4
	c-0.3-0.5-0.2-1.2,0.3-1.6c0.4-0.2,0.8-0.3,1.3-0.3c0.3,0,0.5,0,0.8,0.1c0.2,0.1,0.5,0.1,0.7,0.2l-0.2,0.6c-0.2-0.1-0.4-0.2-0.6-0.2
	c-0.2-0.1-0.5-0.1-0.7-0.1c-0.3,0-0.5,0-0.8,0.2c-0.2,0.1-0.3,0.3-0.3,0.5c0,0.1,0,0.3,0.1,0.4c0.1,0.1,0.2,0.2,0.4,0.3
	c0.2,0.1,0.4,0.2,0.7,0.3c0.3,0.1,0.5,0.2,0.8,0.3c0.2,0.1,0.4,0.3,0.5,0.4C330.6,48.3,330.7,48.5,330.7,48.8z"/>
<path class="st1" d="M333.4,49.6h0.4c0.1,0,0.2,0,0.3-0.1V50c-0.1,0-0.2,0.1-0.4,0.1c-0.1,0-0.3,0-0.4,0c-0.2,0-0.5,0-0.7-0.1
	c-0.2-0.1-0.4-0.3-0.5-0.5c-0.1-0.3-0.2-0.6-0.2-0.9v-2.8h-0.7v-0.4l0.7-0.3l0.3-1h0.4v1.1h1.4v0.6h-1.4v2.8c0,0.2,0.1,0.5,0.2,0.7
	C333,49.5,333.2,49.6,333.4,49.6z"/>
<path class="st1" d="M336.9,45.2c0.5,0,0.9,0.1,1.3,0.4c0.3,0.3,0.5,0.8,0.4,1.2v3.3H338l-0.1-0.7l0,0c-0.1,0.2-0.3,0.3-0.4,0.4
	c-0.2,0.1-0.3,0.2-0.5,0.3c-0.2,0.1-0.5,0.1-0.7,0.1c-0.3,0-0.5,0-0.8-0.2c-0.2-0.1-0.4-0.3-0.5-0.5c-0.1-0.2-0.2-0.5-0.2-0.8
	c0-0.4,0.2-0.9,0.6-1.1c0.5-0.3,1.1-0.4,1.8-0.4h0.8v-0.3c0-0.3-0.1-0.6-0.3-0.9c-0.2-0.2-0.5-0.3-0.8-0.2c-0.2,0-0.5,0-0.7,0.1
	c-0.2,0.1-0.4,0.2-0.6,0.2l-0.2-0.5c0.2-0.1,0.5-0.2,0.7-0.3C336.3,45.2,336.6,45.2,336.9,45.2z M337.9,47.7h-0.7
	c-0.4,0-0.9,0.1-1.3,0.3c-0.2,0.2-0.4,0.4-0.4,0.7c0,0.2,0.1,0.5,0.2,0.6c0.2,0.1,0.4,0.2,0.7,0.2c0.4,0,0.8-0.1,1-0.4
	c0.3-0.3,0.4-0.7,0.4-1.1L337.9,47.7z"/>
<path class="st1" d="M345.3,45.2c0.4,0,0.9,0.1,1.2,0.4c0.3,0.4,0.5,0.9,0.4,1.3v3.2h-0.7V47c0-0.3-0.1-0.6-0.2-0.9
	c-0.2-0.2-0.5-0.3-0.8-0.3c-0.4,0-0.7,0.1-1,0.4c-0.2,0.4-0.3,0.8-0.3,1.2v2.7h-0.7V47c0-0.2,0-0.4-0.1-0.7
	c-0.1-0.2-0.2-0.3-0.3-0.4c-0.2-0.1-0.4-0.1-0.6-0.1c-0.3,0-0.5,0.1-0.8,0.2c-0.2,0.1-0.3,0.4-0.4,0.6c-0.1,0.3-0.1,0.7-0.1,1v2.5
	h-0.7v-4.9h0.6l0.1,0.7l0,0c0.1-0.2,0.2-0.3,0.4-0.4c0.2-0.1,0.3-0.2,0.5-0.2c0.2-0.1,0.4-0.1,0.6-0.1c0.3,0,0.6,0.1,0.9,0.2
	c0.2,0.1,0.4,0.4,0.5,0.6l0,0c0.1-0.3,0.4-0.5,0.6-0.6C344.6,45.2,344.9,45.2,345.3,45.2z"/>
<path class="st1" d="M352.5,47.7c0,0.4-0.1,0.7-0.2,1c-0.1,0.3-0.2,0.6-0.4,0.8c-0.2,0.2-0.4,0.4-0.7,0.5c-0.3,0.1-0.6,0.2-0.9,0.2
	c-0.3,0-0.6-0.1-0.9-0.2c-0.3-0.1-0.5-0.3-0.7-0.5c-0.2-0.2-0.4-0.5-0.5-0.8c-0.1-0.3-0.2-0.7-0.2-1c0-0.5,0.1-0.9,0.3-1.3
	c0.2-0.4,0.4-0.6,0.8-0.8c0.4-0.2,0.8-0.3,1.2-0.3c0.4,0,0.8,0.1,1.1,0.3c0.3,0.2,0.6,0.5,0.8,0.8C352.5,46.7,352.6,47.2,352.5,47.7
	z M348.9,47.7c0,0.3,0,0.7,0.1,1c0.1,0.3,0.3,0.5,0.5,0.7c0.6,0.5,1.5,0.3,1.9-0.3c0.1-0.1,0.2-0.2,0.2-0.4c0.1-0.3,0.2-0.7,0.1-1
	c0-0.3,0-0.7-0.1-1c-0.1-0.3-0.3-0.5-0.5-0.7c-0.2-0.2-0.5-0.2-0.8-0.2c-0.4,0-0.8,0.2-1.1,0.5C349,46.7,348.8,47.2,348.9,47.7z"/>
<path class="st1" d="M356.9,48.8c0,0.3-0.1,0.6-0.2,0.8c-0.2,0.2-0.4,0.4-0.7,0.5c-0.3,0.1-0.7,0.2-1,0.2c-0.3,0-0.6,0-0.9-0.1
	c-0.2,0-0.4-0.1-0.6-0.2v-0.7c0.2,0.1,0.5,0.2,0.7,0.3c0.3,0.1,0.6,0.1,0.8,0.1c0.3,0,0.6,0,0.9-0.2c0.2-0.1,0.3-0.3,0.3-0.5
	c0-0.1,0-0.3-0.1-0.3c-0.1-0.1-0.2-0.2-0.4-0.3c-0.2-0.1-0.5-0.2-0.7-0.3c-0.3-0.1-0.6-0.2-0.8-0.3c-0.2-0.1-0.4-0.2-0.5-0.4
	c-0.3-0.5-0.2-1.2,0.3-1.6c0.4-0.2,0.8-0.3,1.3-0.3c0.3,0,0.5,0,0.8,0.1c0.2,0.1,0.5,0.1,0.7,0.2l-0.2,0.6c-0.2-0.1-0.4-0.2-0.6-0.2
	c-0.2-0.1-0.5-0.1-0.7-0.1c-0.3,0-0.5,0-0.8,0.2c-0.2,0.1-0.3,0.3-0.3,0.5c0,0.1,0,0.3,0.1,0.4c0.1,0.1,0.3,0.2,0.4,0.3
	c0.2,0.1,0.5,0.2,0.7,0.3c0.3,0.1,0.5,0.2,0.8,0.3c0.2,0.1,0.4,0.3,0.5,0.4C356.9,48.3,356.9,48.5,356.9,48.8z"/>
<path class="st1" d="M362.7,45.2c0.5,0,1.1,0.2,1.4,0.6c0.4,0.5,0.6,1.2,0.5,1.9c0,0.5-0.1,0.9-0.2,1.4c-0.3,0.7-1,1.2-1.8,1.1
	c-0.2,0-0.5,0-0.7-0.1c-0.2-0.1-0.3-0.2-0.5-0.3c-0.1-0.1-0.2-0.2-0.3-0.4h0c0,0.1,0,0.2,0,0.4s0,0.3,0,0.4v2h-0.7v-7h0.6l0.1,0.7
	l0,0c0.1-0.1,0.2-0.3,0.3-0.4c0.1-0.1,0.3-0.2,0.5-0.3C362.2,45.2,362.4,45.1,362.7,45.2z M362.6,45.8c-0.3,0-0.6,0.1-0.8,0.2
	c-0.2,0.1-0.4,0.3-0.4,0.6c-0.1,0.3-0.2,0.7-0.1,1v0.1c0,0.3,0,0.7,0.1,1c0.1,0.3,0.2,0.5,0.5,0.6c0.2,0.2,0.5,0.2,0.8,0.2
	c0.3,0,0.5-0.1,0.8-0.2c0.2-0.2,0.4-0.4,0.4-0.7c0.1-0.3,0.2-0.7,0.1-1c0-0.5-0.1-0.9-0.3-1.3C363.4,45.9,363,45.8,362.6,45.8z"/>
<path class="st1" d="M367.7,45.2c0.5,0,0.9,0.1,1.3,0.4c0.3,0.3,0.5,0.8,0.4,1.2v3.3h-0.5l-0.1-0.7l0,0c-0.1,0.2-0.3,0.3-0.4,0.4
	c-0.2,0.1-0.3,0.2-0.5,0.3c-0.2,0.1-0.5,0.1-0.7,0.1c-0.3,0-0.5,0-0.8-0.2c-0.2-0.1-0.4-0.3-0.5-0.5c-0.1-0.2-0.2-0.5-0.2-0.8
	c0-0.4,0.2-0.9,0.6-1.1c0.5-0.3,1.1-0.4,1.7-0.4h0.8v-0.3c0-0.3-0.1-0.6-0.3-0.9c-0.2-0.2-0.5-0.3-0.8-0.2c-0.2,0-0.5,0-0.7,0.1
	c-0.2,0.1-0.4,0.2-0.6,0.2l-0.2-0.5c0.2-0.1,0.5-0.2,0.8-0.3C367.2,45.2,367.4,45.2,367.7,45.2z M368.7,47.7H368
	c-0.4,0-0.9,0.1-1.3,0.3c-0.2,0.2-0.4,0.4-0.4,0.7c0,0.2,0.1,0.5,0.2,0.6c0.2,0.1,0.4,0.2,0.7,0.2c0.4,0,0.8-0.1,1-0.4
	c0.3-0.3,0.4-0.7,0.4-1.1L368.7,47.7z"/>
<path class="st1" d="M373.1,45.2h0.3h0.3l-0.1,0.7h-0.3h-0.3c-0.2,0-0.4,0-0.5,0.1c-0.2,0.1-0.3,0.2-0.5,0.3
	c-0.1,0.2-0.2,0.3-0.3,0.5c-0.1,0.2-0.1,0.4-0.1,0.7v2.6h-0.7v-4.8h0.6l0.1,0.9l0,0c0.1-0.2,0.2-0.3,0.4-0.5
	c0.1-0.1,0.3-0.3,0.5-0.3C372.7,45.2,372.9,45.2,373.1,45.2z"/>
<path class="st1" d="M376.4,45.2c0.5,0,0.9,0.1,1.3,0.4c0.3,0.3,0.5,0.8,0.4,1.2v3.3h-0.5l-0.1-0.7l0,0c-0.1,0.2-0.3,0.3-0.4,0.4
	c-0.2,0.1-0.3,0.2-0.5,0.3c-0.2,0.1-0.5,0.1-0.7,0.1c-0.3,0-0.6,0-0.8-0.2c-0.2-0.1-0.4-0.3-0.5-0.5c-0.1-0.2-0.2-0.5-0.2-0.8
	c0-0.4,0.2-0.9,0.6-1.1c0.5-0.3,1.1-0.4,1.7-0.4h0.8v-0.3c0-0.3-0.1-0.6-0.3-0.9c-0.2-0.2-0.5-0.3-0.8-0.2c-0.2,0-0.5,0-0.7,0.1
	c-0.2,0.1-0.4,0.2-0.6,0.2l-0.2-0.5c0.2-0.1,0.5-0.2,0.7-0.3C375.8,45.2,376.1,45.2,376.4,45.2z M377.4,47.7h-0.7
	c-0.4,0-0.9,0.1-1.3,0.3c-0.2,0.2-0.4,0.4-0.4,0.7c0,0.2,0.1,0.5,0.2,0.6c0.2,0.1,0.4,0.2,0.7,0.2c0.4,0,0.8-0.1,1-0.4
	c0.3-0.3,0.4-0.7,0.4-1.1L377.4,47.7z"/>
<path class="st1" d="M383,50.1l-1.8-4.8h0.8l1,2.9c0.1,0.2,0.1,0.4,0.2,0.7c0.1,0.2,0.1,0.4,0.2,0.6l0,0c0-0.2,0.1-0.3,0.2-0.6
	s0.2-0.5,0.2-0.7l1.1-2.9h0.8l-1.8,4.8H383z"/>
<path class="st1" d="M386.8,43.5c0.1,0,0.2,0,0.3,0.1c0.2,0.2,0.2,0.5,0,0.7c-0.1,0.1-0.2,0.1-0.3,0.1c-0.1,0-0.2,0-0.3-0.1
	c-0.2-0.2-0.2-0.5,0-0.7C386.6,43.5,386.7,43.4,386.8,43.5z M387.2,45.3v4.8h-0.7v-4.8L387.2,45.3z"/>
<path class="st1" d="M389.8,50.1l-1.8-4.8h0.8l1.1,2.9c0.1,0.2,0.1,0.4,0.2,0.7c0.1,0.2,0.1,0.4,0.2,0.6l0,0c0-0.2,0.1-0.4,0.2-0.6
	c0.1-0.2,0.1-0.5,0.2-0.7l1.1-2.9h0.8l-1.8,4.8H389.8z"/>
<path class="st1" d="M393.6,43.5c0.1,0,0.2,0,0.3,0.1c0.2,0.2,0.2,0.5,0,0.7c-0.1,0.1-0.2,0.1-0.3,0.1c-0.1,0-0.2,0-0.3-0.1
	c-0.2-0.2-0.2-0.5,0-0.7C393.4,43.5,393.5,43.4,393.6,43.5z M393.9,45.3v4.8h-0.7v-4.8L393.9,45.3z"/>
<path class="st1" d="M397.3,45.2c0.4,0,0.7,0.1,1,0.3c0.3,0.2,0.5,0.4,0.7,0.8c0.2,0.4,0.2,0.8,0.2,1.2v0.5H396
	c0,0.5,0.1,0.9,0.4,1.3c0.3,0.3,0.7,0.5,1.1,0.5c0.3,0,0.5,0,0.8-0.1c0.2-0.1,0.5-0.1,0.7-0.2v0.6c-0.2,0.1-0.5,0.2-0.7,0.2
	c-0.3,0.1-0.6,0.1-0.9,0.1c-0.4,0-0.8-0.1-1.2-0.3c-0.3-0.2-0.6-0.5-0.8-0.8c-0.2-0.4-0.3-0.9-0.3-1.3c0-0.5,0.1-0.9,0.3-1.3
	c0.2-0.4,0.4-0.7,0.7-0.9C396.6,45.3,397,45.2,397.3,45.2z M397.3,45.8c-0.4,0-0.7,0.1-0.9,0.4c-0.3,0.3-0.4,0.7-0.4,1.1h2.5
	c0-0.3,0-0.5-0.1-0.8c-0.1-0.2-0.2-0.3-0.4-0.5C397.8,45.9,397.6,45.8,397.3,45.8L397.3,45.8z"/>
<path class="st1" d="M402.8,45.2c0.5,0,0.9,0.1,1.3,0.4c0.3,0.4,0.5,0.9,0.4,1.3v3.1h-0.7V47c0-0.3-0.1-0.6-0.3-0.9
	c-0.2-0.2-0.5-0.3-0.8-0.3c-0.4,0-0.9,0.1-1.1,0.5c-0.2,0.4-0.3,0.9-0.3,1.3v2.5h-0.7v-4.8h0.6l0.1,0.7l0,0c0.1-0.2,0.2-0.3,0.4-0.4
	c0.2-0.1,0.3-0.2,0.5-0.3C402.4,45.2,402.6,45.2,402.8,45.2z"/>
<path class="st1" d="M407.8,50.2c-0.6,0-1.1-0.2-1.5-0.6c-0.7-1.1-0.7-2.6,0-3.7c0.4-0.4,0.9-0.6,1.5-0.6c0.2,0,0.5,0,0.7,0.1
	c0.2,0.1,0.3,0.2,0.5,0.3c0.1,0.1,0.3,0.2,0.4,0.4h0.1c0-0.1,0-0.2,0-0.4c0-0.2,0-0.3,0-0.4v-1.9h0.7v6.8h-0.6l-0.1-0.7l0,0
	c-0.1,0.1-0.2,0.3-0.3,0.4c-0.2,0.1-0.3,0.2-0.5,0.3C408.2,50.1,408,50.2,407.8,50.2z M407.9,49.5c0.4,0,0.8-0.1,1.1-0.4
	c0.2-0.4,0.4-0.8,0.3-1.3v-0.1c0-0.5-0.1-1-0.3-1.4c-0.3-0.4-0.7-0.5-1.1-0.5c-0.4,0-0.8,0.2-1,0.5c-0.2,0.4-0.4,0.9-0.3,1.4
	c0,0.5,0.1,1,0.3,1.4C407.1,49.4,407.5,49.6,407.9,49.5L407.9,49.5z"/>
<path class="st1" d="M413.4,45.2c0.5,0,0.9,0.1,1.3,0.4c0.3,0.3,0.5,0.8,0.4,1.2v3.3h-0.5l-0.1-0.7l0,0c-0.1,0.2-0.3,0.3-0.4,0.4
	c-0.1,0.1-0.3,0.2-0.5,0.3c-0.2,0.1-0.5,0.1-0.7,0.1c-0.3,0-0.5,0-0.8-0.2c-0.2-0.1-0.4-0.3-0.5-0.5c-0.1-0.2-0.2-0.5-0.2-0.8
	c0-0.4,0.2-0.9,0.6-1.1c0.5-0.3,1.1-0.4,1.7-0.4h0.8v-0.3c0-0.3-0.1-0.6-0.3-0.9c-0.2-0.2-0.5-0.3-0.8-0.2c-0.2,0-0.5,0-0.7,0.1
	c-0.2,0.1-0.4,0.2-0.6,0.2l-0.2-0.5c0.2-0.1,0.5-0.2,0.8-0.3C412.8,45.2,413.1,45.2,413.4,45.2z M414.4,47.7h-0.7
	c-0.4,0-0.9,0.1-1.3,0.3c-0.2,0.2-0.4,0.4-0.4,0.7c0,0.2,0.1,0.5,0.2,0.6c0.2,0.1,0.4,0.2,0.7,0.2c0.4,0,0.8-0.1,1-0.4
	c0.3-0.3,0.4-0.7,0.4-1.1V47.7z"/>
<path class="st1" d="M419.7,48.8c0,0.6-0.3,1.1-0.9,1.2c-0.3,0.1-0.7,0.2-1,0.2c-0.3,0-0.6,0-0.9-0.1c-0.2,0-0.4-0.1-0.6-0.2v-0.7
	c0.2,0.1,0.5,0.2,0.7,0.3c0.3,0.1,0.6,0.1,0.8,0.1c0.3,0,0.6,0,0.9-0.2c0.2-0.1,0.3-0.3,0.3-0.5c0-0.1,0-0.2-0.1-0.3
	c-0.1-0.1-0.2-0.2-0.4-0.3c-0.2-0.1-0.5-0.2-0.7-0.3c-0.3-0.1-0.6-0.2-0.8-0.3c-0.2-0.1-0.4-0.2-0.5-0.4c-0.3-0.5-0.2-1.2,0.3-1.6
	c0.4-0.2,0.8-0.3,1.3-0.3c0.3,0,0.5,0,0.8,0.1c0.2,0.1,0.5,0.1,0.7,0.2l-0.2,0.6c-0.2-0.1-0.4-0.2-0.6-0.2c-0.2-0.1-0.5-0.1-0.7-0.1
	c-0.3,0-0.5,0-0.8,0.2c-0.2,0.1-0.3,0.3-0.3,0.5c0,0.1,0,0.3,0.1,0.4c0.1,0.1,0.2,0.2,0.4,0.3c0.2,0.1,0.4,0.2,0.7,0.3
	c0.3,0.1,0.5,0.2,0.8,0.3c0.2,0.1,0.4,0.3,0.5,0.4C419.6,48.3,419.7,48.5,419.7,48.8z"/>
<path class="st2" d="M17.3,61c-0.5,0-0.9-0.1-1.3-0.3c-0.4-0.2-0.7-0.4-1-0.7c-0.3-0.3-0.5-0.6-0.7-1c-0.2-0.4-0.3-0.9-0.3-1.3
	c0-0.5,0.1-0.9,0.2-1.3c0.2-0.4,0.4-0.7,0.7-1c0.3-0.3,0.7-0.5,1.1-0.7c0.4-0.2,0.9-0.3,1.3-0.2c0.9,0,1.7,0.3,2.4,1
	c0.3,0.3,0.5,0.7,0.7,1c0.2,0.4,0.3,0.9,0.3,1.3c0,0.5-0.1,0.9-0.2,1.3c-0.2,0.4-0.4,0.7-0.7,1c-0.3,0.3-0.7,0.5-1,0.7
	C18.2,60.9,17.8,61,17.3,61z M17.3,60.5c0.4,0,0.8-0.1,1.1-0.2c0.3-0.1,0.6-0.3,0.9-0.6c0.3-0.3,0.5-0.6,0.6-0.9
	c0.2-0.4,0.2-0.7,0.2-1.1c0-0.4-0.1-0.7-0.2-1.1c-0.1-0.3-0.3-0.6-0.6-0.9c-0.3-0.3-0.6-0.5-0.9-0.6c-0.4-0.2-0.7-0.2-1.1-0.2
	c-0.4,0-0.8,0.1-1.1,0.2c-0.3,0.1-0.6,0.3-0.9,0.6c-0.3,0.3-0.4,0.6-0.6,0.9c-0.3,0.7-0.3,1.5,0,2.2c0.1,0.3,0.3,0.6,0.6,0.9
	c0.3,0.3,0.6,0.5,0.9,0.6C16.6,60.5,17,60.5,17.3,60.5L17.3,60.5z M17.5,59.7c-0.5,0-1-0.2-1.3-0.5c-0.3-0.4-0.5-0.9-0.4-1.5
	c0-0.3,0.1-0.7,0.2-1c0.1-0.3,0.3-0.5,0.6-0.7c0.3-0.2,0.6-0.3,1-0.3c0.2,0,0.4,0,0.6,0.1c0.2,0,0.4,0.1,0.5,0.2l-0.2,0.5
	c-0.1-0.1-0.3-0.1-0.4-0.2c-0.1,0-0.3-0.1-0.4-0.1c-0.3,0-0.7,0.1-0.9,0.4c-0.2,0.3-0.3,0.7-0.3,1.1c0,0.4,0.1,0.8,0.3,1.1
	c0.2,0.3,0.5,0.4,0.9,0.4c0.2,0,0.3,0,0.5-0.1c0.2,0,0.3-0.1,0.5-0.2v0.5c-0.1,0.1-0.3,0.1-0.5,0.2C17.8,59.7,17.7,59.7,17.5,59.7
	L17.5,59.7z"/>
<path class="st2" d="M47.2,54.5H49c0.6,0,1.2,0.1,1.8,0.4c0.4,0.3,0.6,0.7,0.6,1.2c0,0.2,0,0.5-0.1,0.7c-0.1,0.2-0.2,0.4-0.4,0.5
	c-0.2,0.1-0.4,0.2-0.7,0.3l0,0c0.3,0,0.5,0.1,0.8,0.2c0.2,0.1,0.4,0.3,0.5,0.5c0.1,0.2,0.2,0.5,0.2,0.8c0,0.4-0.1,0.7-0.3,1
	c-0.2,0.3-0.5,0.5-0.8,0.6c-0.4,0.1-0.8,0.2-1.2,0.2h-2.2V54.5z M48,57.2h1.2c0.4,0,0.8-0.1,1.2-0.3c0.2-0.2,0.3-0.5,0.3-0.8
	c0-0.3-0.1-0.6-0.4-0.8c-0.4-0.2-0.8-0.3-1.2-0.2H48V57.2z M48,57.8v2.4h1.3c0.4,0,0.9-0.1,1.2-0.3c0.2-0.2,0.4-0.6,0.4-0.9
	c0-0.2-0.1-0.4-0.2-0.6c-0.1-0.2-0.3-0.3-0.5-0.4c-0.3-0.1-0.7-0.2-1-0.1H48z"/>
<path class="st2" d="M54.7,56c0.5,0,0.9,0.1,1.3,0.4c0.3,0.3,0.5,0.8,0.4,1.2v3.3h-0.5l-0.1-0.7l0,0c-0.1,0.2-0.3,0.3-0.4,0.4
	c-0.2,0.1-0.3,0.2-0.5,0.3C54.6,61,54.4,61,54.1,61c-0.3,0-0.5,0-0.8-0.2c-0.2-0.1-0.4-0.3-0.5-0.5c-0.1-0.2-0.2-0.5-0.2-0.8
	c0-0.4,0.2-0.9,0.6-1.1c0.5-0.3,1.1-0.5,1.7-0.5h0.8v-0.3c0-0.3-0.1-0.6-0.3-0.9c-0.2-0.2-0.5-0.3-0.8-0.2c-0.2,0-0.5,0-0.7,0.1
	c-0.2,0.1-0.4,0.2-0.7,0.2l-0.2-0.5c0.2-0.1,0.5-0.2,0.7-0.3C54.1,56,54.4,56,54.7,56z M55.7,58.5H55c-0.4,0-0.9,0.1-1.3,0.3
	c-0.2,0.2-0.4,0.4-0.4,0.7c0,0.2,0.1,0.5,0.2,0.6c0.2,0.1,0.4,0.2,0.7,0.2c0.4,0,0.7-0.1,1-0.4c0.3-0.3,0.4-0.7,0.4-1.1L55.7,58.5z"
	/>
<path class="st2" d="M60.2,56c0.8-0.2,1.6,0.4,1.8,1.2c0,0.2,0,0.3,0,0.5v3.1h-0.7v-3.1c0-0.3-0.1-0.6-0.3-0.9
	c-0.2-0.2-0.5-0.3-0.8-0.3c-0.4-0.1-0.9,0.1-1.2,0.4c-0.2,0.4-0.4,0.8-0.3,1.3v2.5h-0.7v-4.8h0.6l0.1,0.7l0,0
	c0.1-0.2,0.2-0.3,0.4-0.4c0.2-0.1,0.3-0.2,0.5-0.3C59.8,56,60,56,60.2,56z"/>
<path class="st2" d="M64.2,54v3.5c0,0.1,0,0.3,0,0.4s0,0.3,0,0.5l0,0l0.3-0.3l0.3-0.4l1.6-1.7h0.9l-1.9,2l2.1,2.8h-0.9l-1.7-2.3
	L64.2,59v1.7h-0.7V54H64.2z"/>
<path class="st2" d="M74.7,58.5c0,0.4,0,0.7-0.2,1.1c-0.1,0.3-0.2,0.6-0.4,0.8c-0.2,0.2-0.4,0.4-0.7,0.5c-0.3,0.1-0.6,0.2-0.9,0.2
	c-0.3,0-0.6-0.1-0.9-0.2c-0.3-0.1-0.5-0.3-0.7-0.5c-0.2-0.2-0.4-0.5-0.4-0.8c-0.1-0.3-0.2-0.7-0.2-1.1c0-0.5,0.1-0.9,0.3-1.3
	c0.2-0.4,0.4-0.7,0.8-0.8c0.4-0.2,0.8-0.3,1.2-0.3c0.4,0,0.8,0.1,1.2,0.3c0.3,0.2,0.6,0.5,0.8,0.8C74.6,57.6,74.7,58,74.7,58.5z
	 M71,58.5c0,0.3,0.1,0.7,0.2,1c0.1,0.3,0.2,0.5,0.5,0.7c0.2,0.2,0.5,0.2,0.8,0.2c0.3,0,0.6-0.1,0.8-0.2c0.2-0.2,0.4-0.4,0.5-0.7
	c0.1-0.3,0.2-0.7,0.2-1c0-0.3,0-0.7-0.2-1c-0.1-0.3-0.3-0.5-0.5-0.7c-0.3-0.2-0.5-0.2-0.8-0.2c-0.4,0-0.8,0.2-1.1,0.5
	C71.1,57.5,71,58,71,58.5z"/>
<path class="st2" d="M78.1,56.6h-1.2v4.2h-0.7v-4.2h-0.9v-0.3l0.9-0.2v-0.3c0-0.3,0-0.7,0.2-1c0.1-0.2,0.3-0.4,0.5-0.6
	c0.3-0.1,0.5-0.2,0.8-0.2c0.2,0,0.3,0,0.5,0l0.4,0.1l-0.2,0.6l-0.3-0.1c-0.1,0-0.3,0-0.4,0c-0.2,0-0.5,0.1-0.6,0.3
	c-0.2,0.3-0.2,0.5-0.2,0.8V56h1.2L78.1,56.6z"/>
<path class="st2" d="M85.4,60.9l-0.8-2h-2.6l-0.8,2h-0.8l2.5-6.5h0.7l2.5,6.5H85.4z M84.4,58.2l-0.8-2l-0.1-0.3l-0.1-0.4
	c0-0.1-0.1-0.2-0.1-0.3l-0.1,0.4c0,0.1-0.1,0.2-0.1,0.3l-0.1,0.2l-0.8,2L84.4,58.2z"/>
<path class="st2" d="M92.2,56c0.4,0,0.9,0.1,1.2,0.4c0.3,0.4,0.4,0.9,0.4,1.3v3.2h-0.7v-3.2c0-0.3-0.1-0.6-0.2-0.9
	c-0.2-0.2-0.5-0.3-0.8-0.3c-0.4,0-0.7,0.1-1,0.4c-0.2,0.4-0.3,0.8-0.3,1.2v2.7H90v-3.1c0-0.2,0-0.4-0.1-0.7
	c-0.1-0.2-0.2-0.3-0.3-0.4c-0.2-0.1-0.4-0.1-0.6-0.1c-0.3,0-0.5,0.1-0.8,0.2c-0.2,0.1-0.4,0.3-0.4,0.6c-0.1,0.3-0.1,0.7-0.1,1v2.5
	H87v-4.9h0.6l0.1,0.7l0,0c0.1-0.2,0.2-0.3,0.4-0.4c0.1-0.1,0.3-0.2,0.5-0.2c0.2-0.1,0.4-0.1,0.6-0.1c0.3,0,0.6,0.1,0.9,0.2
	c0.2,0.1,0.4,0.4,0.5,0.6l0,0c0.2-0.3,0.4-0.5,0.7-0.6C91.5,56,91.9,56,92.2,56z"/>
<path class="st2" d="M97.2,56c0.4,0,0.7,0.1,1.1,0.3c0.3,0.2,0.5,0.4,0.7,0.8c0.2,0.4,0.2,0.8,0.2,1.2v0.5h-3.3
	c0,0.5,0.1,0.9,0.4,1.3c0.3,0.3,0.7,0.5,1.2,0.5c0.3,0,0.5,0,0.8-0.1c0.2-0.1,0.5-0.1,0.7-0.2v0.6c-0.2,0.1-0.5,0.2-0.7,0.2
	c-0.3,0-0.6,0.1-0.8,0.1c-0.4,0-0.8-0.1-1.2-0.3c-0.3-0.2-0.6-0.5-0.8-0.8C95.1,59.5,95,59,95,58.5c0-0.5,0.1-0.9,0.3-1.3
	C95.6,56.4,96.4,56,97.2,56z M97.2,56.6c-0.4,0-0.7,0.1-0.9,0.4c-0.2,0.3-0.4,0.6-0.4,1h2.6c0-0.3,0-0.5-0.1-0.8
	c-0.1-0.2-0.2-0.4-0.4-0.5C97.6,56.6,97.4,56.6,97.2,56.6L97.2,56.6z"/>
<path class="st2" d="M102.6,56h0.3h0.3l-0.1,0.7l-0.3,0h-0.3c-0.2,0-0.4,0-0.6,0.1c-0.2,0.1-0.3,0.2-0.4,0.3
	c-0.1,0.2-0.2,0.3-0.3,0.5c-0.1,0.2-0.1,0.4-0.1,0.7v2.6h-0.7v-4.8h0.6l0.1,0.9l0,0c0.1-0.2,0.2-0.3,0.4-0.5
	c0.1-0.1,0.3-0.3,0.5-0.3C102.1,56,102.3,56,102.6,56z"/>
<path class="st2" d="M104.4,54.2c0.1,0,0.2,0,0.3,0.1c0.2,0.2,0.2,0.5,0,0.7c-0.1,0.1-0.2,0.1-0.3,0.1c-0.1,0-0.2,0-0.3-0.1
	c-0.2-0.2-0.2-0.5,0-0.7C104.2,54.3,104.3,54.2,104.4,54.2z M104.8,56.1v4.8H104v-4.8H104.8z"/>
<path class="st2" d="M108.2,61c-0.4,0-0.8-0.1-1.1-0.3c-0.3-0.2-0.6-0.5-0.8-0.8c-0.2-0.4-0.3-0.9-0.3-1.4c0-0.5,0.1-1,0.3-1.4
	c0.2-0.4,0.5-0.6,0.8-0.8c0.4-0.2,0.8-0.3,1.2-0.3c0.2,0,0.5,0,0.7,0.1c0.2,0,0.4,0.1,0.6,0.2l-0.2,0.6c-0.2-0.1-0.3-0.1-0.5-0.2
	c-0.2,0-0.4-0.1-0.5-0.1c-0.3,0-0.6,0.1-0.8,0.2c-0.2,0.2-0.4,0.4-0.5,0.6c-0.1,0.3-0.2,0.7-0.2,1c0,0.3,0,0.7,0.2,1
	c0.1,0.3,0.3,0.5,0.5,0.6c0.2,0.2,0.5,0.2,0.8,0.2c0.2,0,0.5,0,0.7-0.1c0.2-0.1,0.4-0.1,0.6-0.2v0.7c-0.2,0.1-0.4,0.2-0.5,0.2
	C108.7,61,108.5,61,108.2,61z"/>
<path class="st2" d="M112.4,56c0.5,0,0.9,0.1,1.3,0.4c0.3,0.3,0.4,0.8,0.4,1.2v3.3h-0.5l-0.1-0.7l0,0c-0.1,0.2-0.3,0.3-0.4,0.4
	c-0.1,0.1-0.3,0.2-0.5,0.3c-0.2,0.1-0.5,0.1-0.7,0.1c-0.3,0-0.5,0-0.8-0.2c-0.2-0.1-0.4-0.3-0.5-0.5c-0.1-0.2-0.2-0.5-0.2-0.8
	c0-0.4,0.2-0.9,0.6-1.1c0.5-0.3,1.1-0.4,1.7-0.4h0.8v-0.3c0-0.3-0.1-0.6-0.3-0.9c-0.2-0.2-0.5-0.3-0.8-0.2c-0.2,0-0.5,0-0.7,0.1
	c-0.2,0.1-0.4,0.1-0.7,0.2l-0.2-0.5c0.2-0.1,0.5-0.2,0.8-0.3C111.9,56.1,112.1,56,112.4,56z M113.4,58.5h-0.7
	c-0.4,0-0.9,0.1-1.3,0.3c-0.2,0.2-0.4,0.4-0.4,0.7c0,0.2,0.1,0.5,0.2,0.6c0.2,0.1,0.4,0.2,0.7,0.2c0.4,0,0.7-0.1,1-0.4
	c0.3-0.3,0.4-0.7,0.4-1.1L113.4,58.5z"/>
<path class="st2" d="M120.8,55c-0.3,0-0.7,0.1-1,0.2c-0.3,0.1-0.5,0.3-0.7,0.5c-0.2,0.2-0.4,0.5-0.4,0.8c-0.1,0.4-0.2,0.7-0.2,1.1
	c0,0.5,0.1,1,0.2,1.4c0.2,0.4,0.4,0.7,0.8,0.9c0.4,0.2,0.8,0.3,1.3,0.3c0.3,0,0.5,0,0.8-0.1c0.2,0,0.5-0.1,0.7-0.2v0.7
	c-0.2,0.1-0.5,0.2-0.7,0.2c-0.3,0-0.6,0.1-0.9,0.1c-0.6,0-1.1-0.1-1.6-0.4c-0.4-0.3-0.8-0.7-1-1.2c-0.2-0.6-0.3-1.1-0.3-1.8
	c0-0.5,0.1-0.9,0.2-1.3c0.1-0.4,0.3-0.7,0.6-1c0.3-0.3,0.6-0.5,1-0.7c0.4-0.2,0.9-0.2,1.3-0.2c0.3,0,0.6,0,0.9,0.1
	c0.3,0.1,0.6,0.2,0.8,0.3l-0.3,0.6c-0.2-0.1-0.4-0.2-0.7-0.2C121.4,55.1,121.1,55,120.8,55z"/>
<path class="st2" d="M127.8,58.5c0,0.4-0.1,0.7-0.2,1.1c-0.1,0.3-0.2,0.6-0.4,0.8c-0.2,0.2-0.4,0.4-0.7,0.5
	c-0.3,0.1-0.6,0.2-0.9,0.2c-0.3,0-0.6-0.1-0.9-0.2c-0.3-0.1-0.5-0.3-0.7-0.5c-0.2-0.2-0.4-0.5-0.5-0.8c-0.1-0.3-0.2-0.7-0.2-1.1
	c0-0.5,0.1-0.9,0.3-1.3c0.2-0.4,0.4-0.7,0.8-0.8c0.4-0.2,0.8-0.3,1.2-0.3c0.4,0,0.8,0.1,1.2,0.3c0.3,0.2,0.6,0.5,0.8,0.8
	C127.7,57.5,127.8,58,127.8,58.5z M124.1,58.5c0,0.3,0,0.7,0.2,1c0.2,0.6,0.7,0.9,1.3,0.9c0.3,0,0.6-0.1,0.8-0.2
	c0.2-0.2,0.4-0.4,0.5-0.7c0.1-0.3,0.2-0.7,0.2-1c0-0.3,0-0.7-0.2-1c-0.2-0.6-0.7-0.9-1.3-0.9c-0.4,0-0.8,0.2-1.1,0.5
	C124.2,57.5,124.1,58,124.1,58.5z"/>
<path class="st2" d="M131.2,56h0.3h0.3l-0.1,0.7l-0.3,0h-0.3c-0.2,0-0.4,0-0.6,0.1c-0.2,0.1-0.3,0.2-0.4,0.3
	c-0.1,0.2-0.2,0.3-0.3,0.5c-0.1,0.2-0.1,0.4-0.1,0.7v2.6h-0.7v-4.8h0.6l0.1,0.9l0,0c0.1-0.2,0.2-0.3,0.4-0.5
	c0.1-0.1,0.3-0.3,0.5-0.3C130.8,56,131,56,131.2,56z"/>
<path class="st2" d="M135,56c0.5,0,1.1,0.2,1.4,0.6c0.4,0.5,0.6,1.2,0.5,1.9c0,0.5-0.1,0.9-0.2,1.4c-0.1,0.3-0.4,0.6-0.7,0.8
	c-0.3,0.2-0.7,0.3-1,0.3c-0.2,0-0.5,0-0.7-0.1c-0.2-0.1-0.3-0.2-0.5-0.3c-0.1-0.1-0.2-0.2-0.3-0.4h-0.1c0,0.1,0,0.2,0,0.4
	s0,0.3,0,0.4v2h-0.7v-7h0.6l0.1,0.7l0,0c0.1-0.1,0.2-0.3,0.3-0.4c0.1-0.1,0.3-0.2,0.5-0.3C134.5,56,134.7,56,135,56z M134.9,56.6
	c-0.3,0-0.6,0.1-0.8,0.2c-0.2,0.1-0.4,0.3-0.4,0.6c-0.1,0.3-0.2,0.7-0.1,1v0.1c0,0.3,0,0.7,0.1,1c0.1,0.3,0.2,0.5,0.4,0.6
	c0.2,0.2,0.5,0.2,0.8,0.2c0.3,0,0.5-0.1,0.8-0.2c0.2-0.2,0.4-0.4,0.4-0.7c0.1-0.3,0.2-0.7,0.1-1c0-0.5-0.1-0.9-0.3-1.3
	C135.7,56.8,135.3,56.6,134.9,56.6L134.9,56.6z"/>
<path class="st2" d="M142.4,58.5c0,0.4,0,0.7-0.1,1.1c-0.1,0.3-0.2,0.6-0.4,0.8c-0.2,0.2-0.4,0.4-0.7,0.5c-0.3,0.1-0.6,0.2-0.9,0.2
	c-0.3,0-0.6-0.1-0.9-0.2c-0.3-0.1-0.5-0.3-0.7-0.5c-0.2-0.2-0.4-0.5-0.5-0.8c-0.1-0.3-0.2-0.7-0.2-1.1c0-0.5,0.1-0.9,0.3-1.3
	c0.2-0.4,0.4-0.7,0.8-0.8c0.4-0.2,0.8-0.3,1.2-0.3c0.4,0,0.8,0.1,1.1,0.3c0.3,0.2,0.6,0.5,0.8,0.8C142.3,57.6,142.4,58,142.4,58.5z
	 M138.7,58.5c0,0.3,0,0.7,0.1,1c0.2,0.6,0.7,0.9,1.3,0.9c0.3,0,0.6-0.1,0.8-0.2c0.2-0.2,0.4-0.4,0.5-0.7c0.1-0.3,0.2-0.7,0.2-1
	c0-0.3,0-0.7-0.2-1c-0.1-0.3-0.3-0.5-0.5-0.7c-0.2-0.2-0.5-0.2-0.8-0.2c-0.4,0-0.8,0.2-1.1,0.5C138.8,57.5,138.7,58,138.7,58.5z"/>
<path class="st2" d="M145.8,56h0.3h0.3l-0.1,0.7l-0.3,0h-0.3c-0.2,0-0.4,0-0.6,0.1c-0.2,0.1-0.3,0.2-0.4,0.3
	c-0.1,0.2-0.2,0.3-0.3,0.5c-0.1,0.2-0.1,0.4-0.1,0.7v2.6h-0.7v-4.8h0.6l0.1,0.9l0,0c0.1-0.2,0.2-0.3,0.4-0.5
	c0.1-0.1,0.3-0.3,0.5-0.3C145.4,56,145.6,56,145.8,56z"/>
<path class="st2" d="M149.1,56c0.5,0,0.9,0.1,1.3,0.4c0.3,0.3,0.5,0.8,0.4,1.2v3.3h-0.5l-0.1-0.7l0,0c-0.1,0.2-0.3,0.3-0.4,0.4
	c-0.1,0.1-0.3,0.2-0.5,0.3c-0.2,0.1-0.5,0.1-0.7,0.1c-0.3,0-0.5,0-0.8-0.2c-0.2-0.1-0.4-0.3-0.5-0.5c-0.1-0.2-0.2-0.5-0.2-0.8
	c0-0.4,0.2-0.9,0.6-1.1c0.5-0.3,1.1-0.4,1.7-0.4h0.8v-0.3c0-0.3-0.1-0.6-0.3-0.9c-0.2-0.2-0.5-0.3-0.8-0.2c-0.2,0-0.5,0-0.7,0.1
	c-0.2,0.1-0.4,0.2-0.6,0.2l-0.2-0.5c0.2-0.1,0.5-0.2,0.8-0.3C148.6,56.1,148.9,56,149.1,56z M150.1,58.5h-0.7
	c-0.4,0-0.9,0.1-1.3,0.3c-0.2,0.2-0.4,0.4-0.4,0.7c0,0.2,0.1,0.5,0.2,0.6c0.2,0.1,0.4,0.2,0.7,0.2c0.4,0,0.7-0.1,1-0.4
	c0.3-0.3,0.4-0.7,0.4-1.1L150.1,58.5z"/>
<path class="st2" d="M153.9,60.4h0.4c0.1,0,0.2,0,0.3-0.1v0.6c-0.1,0-0.2,0.1-0.4,0.1c-0.1,0-0.3,0-0.4,0c-0.2,0-0.5,0-0.7-0.1
	c-0.2-0.1-0.4-0.3-0.5-0.5c-0.1-0.3-0.2-0.6-0.2-0.9v-2.8h-0.7v-0.4l0.7-0.3l0.3-1h0.4v1.1h1.4v0.6h-1.4v2.8c0,0.2,0.1,0.5,0.2,0.7
	C153.5,60.3,153.7,60.4,153.9,60.4z"/>
<path class="st2" d="M155.9,54.2c0.1,0,0.2,0,0.3,0.1c0.2,0.2,0.2,0.5,0,0.7c-0.1,0.1-0.2,0.1-0.3,0.1c-0.1,0-0.2,0-0.3-0.1
	c-0.2-0.2-0.2-0.5,0-0.7C155.7,54.3,155.8,54.2,155.9,54.2z M156.3,56.1v4.8h-0.7v-4.8H156.3z"/>
<path class="st2" d="M162,58.5c0,0.4,0,0.7-0.2,1.1c-0.1,0.3-0.2,0.6-0.4,0.8c-0.2,0.2-0.4,0.4-0.7,0.5c-0.3,0.1-0.6,0.2-0.9,0.2
	c-0.3,0-0.6-0.1-0.9-0.2c-0.3-0.1-0.5-0.3-0.7-0.5c-0.2-0.2-0.4-0.5-0.4-0.8c-0.1-0.3-0.2-0.7-0.2-1.1c0-0.5,0.1-0.9,0.3-1.3
	c0.2-0.4,0.4-0.7,0.8-0.8c0.4-0.2,0.8-0.3,1.2-0.3c0.4,0,0.8,0.1,1.1,0.3c0.3,0.2,0.6,0.5,0.8,0.8C161.9,57.5,162,58,162,58.5z
	 M158.3,58.5c0,0.3,0,0.7,0.2,1c0.1,0.3,0.2,0.5,0.5,0.7c0.6,0.5,1.5,0.3,1.9-0.3c0.1-0.1,0.2-0.2,0.2-0.4c0.1-0.3,0.2-0.7,0.1-1
	c0-0.3,0-0.7-0.1-1c-0.1-0.3-0.3-0.5-0.5-0.7c-0.2-0.2-0.5-0.2-0.8-0.2c-0.4,0-0.8,0.2-1.1,0.5C158.4,57.5,158.3,58,158.3,58.5
	L158.3,58.5z"/>
<path class="st2" d="M165.5,56c0.5,0,0.9,0.1,1.3,0.4c0.3,0.4,0.5,0.9,0.4,1.3v3.1h-0.7v-3.1c0-0.3-0.1-0.6-0.3-0.9
	c-0.2-0.2-0.5-0.3-0.8-0.3c-0.4,0-0.9,0.1-1.1,0.5c-0.2,0.4-0.3,0.9-0.3,1.3v2.5h-0.7v-4.8h0.6l0.1,0.7l0,0c0.1-0.2,0.2-0.3,0.4-0.4
	c0.2-0.1,0.3-0.2,0.5-0.3C165.1,56,165.3,56,165.5,56z"/>
<path class="st2" d="M168.6,60.4c0-0.2,0-0.3,0.1-0.4c0.1-0.1,0.2-0.1,0.4-0.1c0.1,0,0.3,0,0.4,0.1c0.1,0.1,0.2,0.3,0.1,0.4
	c0,0.2,0,0.3-0.1,0.5c-0.1,0.1-0.2,0.1-0.4,0.1c-0.1,0-0.3,0-0.4-0.1C168.7,60.7,168.6,60.6,168.6,60.4z"/>
<path class="st3" d="M426,50.2h-0.9v-4.5l4-3.6l1.5,1.3l1,0.9l1.5,1.4v4.5h-0.9v-4.1l-3.1-2.8l-3.1,2.8V50.2z M426.9,49.3h4.5v0.9
	h-4.5V49.3z M426.9,48h4.5v0.9h-4.5V48z M431.4,46.6v0.9h-4.5v-0.9H431.4z M429.1,40.3l5.4,4.8l-0.6,0.7l-4.8-4.2l-4.8,4.2l-0.6-0.7
	L429.1,40.3z"/>
<path class="st4" d="M17.7,15.6c0-0.6,0.4-1,1-1s1,0.4,1,1c0,0.4-0.2,0.7-0.5,0.9v1.1h-1v-1.1C17.9,16.3,17.7,16,17.7,15.6z
	 M23.2,12.6v7h-9v-7h1.5v-2c0-1.7,1.3-3,3-3s3,1.3,3,3v2L23.2,12.6z M16.7,12.6h4v-2c0-1.1-0.9-2-2-2s-2,0.9-2,2V12.6z M22.2,13.6
	h-7v5h7V13.6z"/>
<g>
	<path class="st2" d="M27.6,60.9h-4.2v-0.6l1.7-1.7c0.3-0.3,0.6-0.6,0.8-0.9c0.2-0.3,0.4-0.5,0.5-0.7c0.1-0.2,0.2-0.5,0.2-0.8
		c0-0.4-0.1-0.6-0.3-0.8c-0.2-0.2-0.5-0.3-0.8-0.3c-0.3,0-0.6,0.1-0.8,0.2s-0.5,0.3-0.7,0.4l-0.4-0.5c0.2-0.1,0.4-0.3,0.6-0.4
		c0.2-0.1,0.4-0.2,0.6-0.3s0.5-0.1,0.7-0.1c0.4,0,0.7,0.1,1,0.2s0.5,0.3,0.7,0.6c0.2,0.3,0.2,0.6,0.2,0.9c0,0.3-0.1,0.7-0.2,0.9
		c-0.1,0.3-0.3,0.6-0.6,0.9s-0.5,0.6-0.9,0.9l-1.4,1.4v0h3.3V60.9z"/>
	<path class="st2" d="M32.8,57.6c0,0.5,0,1-0.1,1.4c-0.1,0.4-0.2,0.8-0.4,1c-0.2,0.3-0.4,0.5-0.7,0.6s-0.6,0.2-1,0.2
		c-0.5,0-0.9-0.1-1.2-0.4c-0.3-0.3-0.5-0.6-0.7-1.1c-0.2-0.5-0.2-1.1-0.2-1.8c0-0.7,0.1-1.3,0.2-1.8c0.1-0.5,0.4-0.9,0.7-1.1
		s0.7-0.4,1.2-0.4c0.5,0,0.9,0.1,1.2,0.4c0.3,0.3,0.5,0.6,0.7,1.1C32.7,56.4,32.8,57,32.8,57.6z M29.3,57.6c0,0.6,0,1.1,0.1,1.5
		c0.1,0.4,0.2,0.7,0.4,0.9s0.5,0.3,0.8,0.3s0.6-0.1,0.8-0.3c0.2-0.2,0.4-0.5,0.4-0.9s0.1-0.9,0.1-1.5c0-0.6,0-1.1-0.1-1.5
		c-0.1-0.4-0.2-0.7-0.4-0.9S31,55,30.7,55s-0.6,0.1-0.8,0.3c-0.2,0.2-0.3,0.5-0.4,0.9C29.4,56.6,29.3,57.1,29.3,57.6z"/>
	<path class="st2" d="M37.9,60.9h-4.2v-0.6l1.7-1.7c0.3-0.3,0.6-0.6,0.8-0.9c0.2-0.3,0.4-0.5,0.5-0.7c0.1-0.2,0.2-0.5,0.2-0.8
		c0-0.4-0.1-0.6-0.3-0.8c-0.2-0.2-0.5-0.3-0.8-0.3c-0.3,0-0.6,0.1-0.8,0.2s-0.5,0.3-0.7,0.4l-0.4-0.5c0.2-0.1,0.4-0.3,0.6-0.4
		c0.2-0.1,0.4-0.2,0.6-0.3s0.5-0.1,0.7-0.1c0.4,0,0.7,0.1,1,0.2s0.5,0.3,0.7,0.6c0.2,0.3,0.2,0.6,0.2,0.9c0,0.3-0.1,0.7-0.2,0.9
		c-0.1,0.3-0.3,0.6-0.6,0.9s-0.5,0.6-0.9,0.9l-1.4,1.4v0h3.3V60.9z"/>
	<path class="st2" d="M43.1,60.9h-4.2v-0.6l1.7-1.7c0.3-0.3,0.6-0.6,0.8-0.9c0.2-0.3,0.4-0.5,0.5-0.7c0.1-0.2,0.2-0.5,0.2-0.8
		c0-0.4-0.1-0.6-0.3-0.8c-0.2-0.2-0.5-0.3-0.8-0.3c-0.3,0-0.6,0.1-0.8,0.2s-0.5,0.3-0.7,0.4l-0.4-0.5c0.2-0.1,0.4-0.3,0.6-0.4
		c0.2-0.1,0.4-0.2,0.6-0.3s0.5-0.1,0.7-0.1c0.4,0,0.7,0.1,1,0.2s0.5,0.3,0.7,0.6c0.2,0.3,0.2,0.6,0.2,0.9c0,0.3-0.1,0.7-0.2,0.9
		c-0.1,0.3-0.3,0.6-0.6,0.9s-0.5,0.6-0.9,0.9l-1.4,1.4v0h3.3V60.9z"/>
</g>
</svg>
