<svg id="Capa_1" data-name="Capa 1" xmlns="http://www.w3.org/2000/svg" viewBox="0 0 120.73 75.9"><defs><style>.cls-1{fill:#bfbebe;}.cls-2{fill:#fff;}.cls-3{fill:#bfbdbe;}.cls-4{fill:#333;}</style></defs><rect class="cls-1" x="1.92" y="32.04" width="116.81" height="41.17" rx="4"/><rect class="cls-2" x="4.96" y="35.05" width="57.8" height="35.51" rx="4"/><path class="cls-3" d="M39.86,64.81v-24h4v24Zm-4,0v-24h-4v24Zm-8,0v-24h-4v24Z"/><path class="cls-2" d="M89.8,63H87.18L76.53,46.6h-.11c0,.44.06.93.09,1.49s.07,1.15.09,1.78,0,1.26,0,1.92V63H74.52V43.47h2.61L87.74,59.83h.09c0-.31,0-.75-.06-1.33s0-1.19-.08-1.86,0-1.28,0-1.85V43.47H89.8Z"/><path class="cls-2" d="M112.08,53.22a14,14,0,0,1-.57,4.11,8.85,8.85,0,0,1-1.71,3.18,7.52,7.52,0,0,1-2.8,2.05,9.68,9.68,0,0,1-3.87.72,10.09,10.09,0,0,1-4-.72,7.35,7.35,0,0,1-2.8-2.06,8.83,8.83,0,0,1-1.67-3.19,14.35,14.35,0,0,1-.56-4.12,12.94,12.94,0,0,1,1-5.25,7.67,7.67,0,0,1,3-3.52,9.34,9.34,0,0,1,5-1.26,9,9,0,0,1,4.88,1.25,7.79,7.79,0,0,1,3,3.49A12.82,12.82,0,0,1,112.08,53.22Zm-15.56,0a11.88,11.88,0,0,0,.71,4.3,5.87,5.87,0,0,0,2.17,2.81,7.5,7.5,0,0,0,7.45,0A5.84,5.84,0,0,0,109,57.52a12.12,12.12,0,0,0,.69-4.3,9.78,9.78,0,0,0-1.58-5.92,5.77,5.77,0,0,0-4.94-2.13,6.68,6.68,0,0,0-3.75,1,5.81,5.81,0,0,0-2.18,2.78A11.55,11.55,0,0,0,96.52,53.22Z"/><path class="cls-4" d="M15.77,19.62A4,4,0,0,1,15.09,22a4.15,4.15,0,0,1-1.9,1.47,7.48,7.48,0,0,1-2.88.51c-.59,0-1.14,0-1.66-.08a10.84,10.84,0,0,1-1.43-.25,5.34,5.34,0,0,1-1.15-.39V21.49A13.46,13.46,0,0,0,8,22.1a9.76,9.76,0,0,0,2.38.28,5.37,5.37,0,0,0,2-.31,2.61,2.61,0,0,0,1.22-.9A2.35,2.35,0,0,0,14,19.76a2.38,2.38,0,0,0-.35-1.32,3,3,0,0,0-1.16-1,15.78,15.78,0,0,0-2.2-.93,12.24,12.24,0,0,1-1.73-.77,5.38,5.38,0,0,1-1.25-.94,3.56,3.56,0,0,1-.77-1.23A4.58,4.58,0,0,1,6.27,12,3.58,3.58,0,0,1,6.89,9.9,4,4,0,0,1,8.63,8.55a6.46,6.46,0,0,1,2.56-.47,10.33,10.33,0,0,1,2.29.23,9.6,9.6,0,0,1,1.92.62l-.56,1.54a11.47,11.47,0,0,0-1.77-.58,8.14,8.14,0,0,0-1.92-.23A4.13,4.13,0,0,0,9.48,10a2.22,2.22,0,0,0-1,.82A2.16,2.16,0,0,0,8.08,12a2.46,2.46,0,0,0,.34,1.35,3,3,0,0,0,1.1,1,16.52,16.52,0,0,0,2,.87,14.05,14.05,0,0,1,2.31,1.05,3.92,3.92,0,0,1,1.44,1.35A3.76,3.76,0,0,1,15.77,19.62Z"/><path class="cls-4" d="M23,12A4.37,4.37,0,0,1,26,12.9a3.85,3.85,0,0,1,1,3v7.86H25.77L25.43,22h-.08a6.09,6.09,0,0,1-1,1.06,3.6,3.6,0,0,1-1.21.64,5.57,5.57,0,0,1-1.7.22,4.46,4.46,0,0,1-1.87-.37,3,3,0,0,1-1.29-1.12,3.54,3.54,0,0,1-.47-1.9,3,3,0,0,1,1.38-2.65,8,8,0,0,1,4.17-1l2-.08v-.71a2.79,2.79,0,0,0-.65-2.1,2.55,2.55,0,0,0-1.81-.6,5.5,5.5,0,0,0-1.73.27,10.79,10.79,0,0,0-1.56.62l-.54-1.33a9.55,9.55,0,0,1,1.79-.69A7.88,7.88,0,0,1,23,12Zm2.35,6-1.77.08a5.9,5.9,0,0,0-3,.7,2,2,0,0,0-.89,1.76,1.76,1.76,0,0,0,.6,1.47,2.47,2.47,0,0,0,1.59.48,3.69,3.69,0,0,0,2.52-.86,3.19,3.19,0,0,0,1-2.56Z"/><path class="cls-4" d="M33.2,23.72,28.81,12.16h1.87l2.55,7c.17.48.35,1,.53,1.58a11.88,11.88,0,0,1,.38,1.4h.08a13.56,13.56,0,0,1,.42-1.4l.54-1.58,2.54-7H39.6L35.2,23.72Z"/><path class="cls-4" d="M45.9,12a4.78,4.78,0,0,1,2.53.65A4.28,4.28,0,0,1,50,14.43a6.4,6.4,0,0,1,.56,2.75v1.09h-8a4.56,4.56,0,0,0,1,3.1,3.55,3.55,0,0,0,2.76,1.06,8.09,8.09,0,0,0,1.94-.2,10.31,10.31,0,0,0,1.75-.59v1.54a8.54,8.54,0,0,1-1.73.57,10.07,10.07,0,0,1-2,.18,6,6,0,0,1-2.91-.68,4.59,4.59,0,0,1-1.92-2A6.89,6.89,0,0,1,40.8,18a7.66,7.66,0,0,1,.63-3.23A4.67,4.67,0,0,1,45.9,12Zm0,1.43a2.87,2.87,0,0,0-2.23.92,4.26,4.26,0,0,0-1,2.56h6.11A4.89,4.89,0,0,0,48.44,15a2.63,2.63,0,0,0-.94-1.22A2.83,2.83,0,0,0,45.87,13.38Z"/><path class="cls-4" d="M59.45,23.72V8.3h1.79V23.72Z"/><path class="cls-4" d="M77.73,15.86a9,9,0,0,1-1,4.35A6.09,6.09,0,0,1,74,22.84a9.8,9.8,0,0,1-4.36.88H65.48V8.3h4.65a8.77,8.77,0,0,1,4.05.86,6,6,0,0,1,2.63,2.54A8.62,8.62,0,0,1,77.73,15.86Zm-1.89.06a7.49,7.49,0,0,0-.69-3.42,4.44,4.44,0,0,0-2-2,7.28,7.28,0,0,0-3.26-.66H67.28V22.18h2.18a6.58,6.58,0,0,0,4.78-1.57A6.29,6.29,0,0,0,75.84,15.92Z"/></svg>